G75*
G70*
%OFA0B0*%
%FSLAX24Y24*%
%IPPOS*%
%LPD*%
%AMOC8*
5,1,8,0,0,1.08239X$1,22.5*
%
%ADD10C,0.0000*%
%ADD11C,0.0060*%
%ADD12C,0.0160*%
%ADD13C,0.0040*%
%ADD14C,0.0070*%
%ADD15C,0.0020*%
%ADD16R,0.0300X0.0250*%
%ADD17R,0.0500X0.1100*%
%ADD18C,0.0050*%
%ADD19R,0.1000X0.0200*%
%ADD20R,0.0300X0.0750*%
%ADD21C,0.0080*%
%ADD22C,0.0100*%
%ADD23R,0.0748X0.0118*%
%ADD24C,0.0010*%
%ADD25R,0.0230X0.0160*%
%ADD26C,0.0030*%
%ADD27R,0.1400X0.0500*%
D10*
X000433Y000333D02*
X000433Y030581D01*
X039029Y030581D01*
X039009Y000303D01*
X000433Y000333D01*
X000883Y001233D02*
X000885Y001283D01*
X000891Y001333D01*
X000901Y001383D01*
X000914Y001431D01*
X000931Y001479D01*
X000952Y001525D01*
X000976Y001569D01*
X001004Y001611D01*
X001035Y001651D01*
X001069Y001688D01*
X001106Y001723D01*
X001145Y001754D01*
X001186Y001783D01*
X001230Y001808D01*
X001276Y001830D01*
X001323Y001848D01*
X001371Y001862D01*
X001420Y001873D01*
X001470Y001880D01*
X001520Y001883D01*
X001571Y001882D01*
X001621Y001877D01*
X001671Y001868D01*
X001719Y001856D01*
X001767Y001839D01*
X001813Y001819D01*
X001858Y001796D01*
X001901Y001769D01*
X001941Y001739D01*
X001979Y001706D01*
X002014Y001670D01*
X002047Y001631D01*
X002076Y001590D01*
X002102Y001547D01*
X002125Y001502D01*
X002144Y001455D01*
X002159Y001407D01*
X002171Y001358D01*
X002179Y001308D01*
X002183Y001258D01*
X002183Y001208D01*
X002179Y001158D01*
X002171Y001108D01*
X002159Y001059D01*
X002144Y001011D01*
X002125Y000964D01*
X002102Y000919D01*
X002076Y000876D01*
X002047Y000835D01*
X002014Y000796D01*
X001979Y000760D01*
X001941Y000727D01*
X001901Y000697D01*
X001858Y000670D01*
X001813Y000647D01*
X001767Y000627D01*
X001719Y000610D01*
X001671Y000598D01*
X001621Y000589D01*
X001571Y000584D01*
X001520Y000583D01*
X001470Y000586D01*
X001420Y000593D01*
X001371Y000604D01*
X001323Y000618D01*
X001276Y000636D01*
X001230Y000658D01*
X001186Y000683D01*
X001145Y000712D01*
X001106Y000743D01*
X001069Y000778D01*
X001035Y000815D01*
X001004Y000855D01*
X000976Y000897D01*
X000952Y000941D01*
X000931Y000987D01*
X000914Y001035D01*
X000901Y001083D01*
X000891Y001133D01*
X000885Y001183D01*
X000883Y001233D01*
X003786Y018736D02*
X003788Y018786D01*
X003794Y018836D01*
X003804Y018886D01*
X003817Y018934D01*
X003834Y018982D01*
X003855Y019028D01*
X003879Y019072D01*
X003907Y019114D01*
X003938Y019154D01*
X003972Y019191D01*
X004009Y019226D01*
X004048Y019257D01*
X004089Y019286D01*
X004133Y019311D01*
X004179Y019333D01*
X004226Y019351D01*
X004274Y019365D01*
X004323Y019376D01*
X004373Y019383D01*
X004423Y019386D01*
X004474Y019385D01*
X004524Y019380D01*
X004574Y019371D01*
X004622Y019359D01*
X004670Y019342D01*
X004716Y019322D01*
X004761Y019299D01*
X004804Y019272D01*
X004844Y019242D01*
X004882Y019209D01*
X004917Y019173D01*
X004950Y019134D01*
X004979Y019093D01*
X005005Y019050D01*
X005028Y019005D01*
X005047Y018958D01*
X005062Y018910D01*
X005074Y018861D01*
X005082Y018811D01*
X005086Y018761D01*
X005086Y018711D01*
X005082Y018661D01*
X005074Y018611D01*
X005062Y018562D01*
X005047Y018514D01*
X005028Y018467D01*
X005005Y018422D01*
X004979Y018379D01*
X004950Y018338D01*
X004917Y018299D01*
X004882Y018263D01*
X004844Y018230D01*
X004804Y018200D01*
X004761Y018173D01*
X004716Y018150D01*
X004670Y018130D01*
X004622Y018113D01*
X004574Y018101D01*
X004524Y018092D01*
X004474Y018087D01*
X004423Y018086D01*
X004373Y018089D01*
X004323Y018096D01*
X004274Y018107D01*
X004226Y018121D01*
X004179Y018139D01*
X004133Y018161D01*
X004089Y018186D01*
X004048Y018215D01*
X004009Y018246D01*
X003972Y018281D01*
X003938Y018318D01*
X003907Y018358D01*
X003879Y018400D01*
X003855Y018444D01*
X003834Y018490D01*
X003817Y018538D01*
X003804Y018586D01*
X003794Y018636D01*
X003788Y018686D01*
X003786Y018736D01*
X009783Y018733D02*
X009785Y018783D01*
X009791Y018833D01*
X009801Y018883D01*
X009814Y018931D01*
X009831Y018979D01*
X009852Y019025D01*
X009876Y019069D01*
X009904Y019111D01*
X009935Y019151D01*
X009969Y019188D01*
X010006Y019223D01*
X010045Y019254D01*
X010086Y019283D01*
X010130Y019308D01*
X010176Y019330D01*
X010223Y019348D01*
X010271Y019362D01*
X010320Y019373D01*
X010370Y019380D01*
X010420Y019383D01*
X010471Y019382D01*
X010521Y019377D01*
X010571Y019368D01*
X010619Y019356D01*
X010667Y019339D01*
X010713Y019319D01*
X010758Y019296D01*
X010801Y019269D01*
X010841Y019239D01*
X010879Y019206D01*
X010914Y019170D01*
X010947Y019131D01*
X010976Y019090D01*
X011002Y019047D01*
X011025Y019002D01*
X011044Y018955D01*
X011059Y018907D01*
X011071Y018858D01*
X011079Y018808D01*
X011083Y018758D01*
X011083Y018708D01*
X011079Y018658D01*
X011071Y018608D01*
X011059Y018559D01*
X011044Y018511D01*
X011025Y018464D01*
X011002Y018419D01*
X010976Y018376D01*
X010947Y018335D01*
X010914Y018296D01*
X010879Y018260D01*
X010841Y018227D01*
X010801Y018197D01*
X010758Y018170D01*
X010713Y018147D01*
X010667Y018127D01*
X010619Y018110D01*
X010571Y018098D01*
X010521Y018089D01*
X010471Y018084D01*
X010420Y018083D01*
X010370Y018086D01*
X010320Y018093D01*
X010271Y018104D01*
X010223Y018118D01*
X010176Y018136D01*
X010130Y018158D01*
X010086Y018183D01*
X010045Y018212D01*
X010006Y018243D01*
X009969Y018278D01*
X009935Y018315D01*
X009904Y018355D01*
X009876Y018397D01*
X009852Y018441D01*
X009831Y018487D01*
X009814Y018535D01*
X009801Y018583D01*
X009791Y018633D01*
X009785Y018683D01*
X009783Y018733D01*
X015783Y018733D02*
X015785Y018783D01*
X015791Y018833D01*
X015801Y018883D01*
X015814Y018931D01*
X015831Y018979D01*
X015852Y019025D01*
X015876Y019069D01*
X015904Y019111D01*
X015935Y019151D01*
X015969Y019188D01*
X016006Y019223D01*
X016045Y019254D01*
X016086Y019283D01*
X016130Y019308D01*
X016176Y019330D01*
X016223Y019348D01*
X016271Y019362D01*
X016320Y019373D01*
X016370Y019380D01*
X016420Y019383D01*
X016471Y019382D01*
X016521Y019377D01*
X016571Y019368D01*
X016619Y019356D01*
X016667Y019339D01*
X016713Y019319D01*
X016758Y019296D01*
X016801Y019269D01*
X016841Y019239D01*
X016879Y019206D01*
X016914Y019170D01*
X016947Y019131D01*
X016976Y019090D01*
X017002Y019047D01*
X017025Y019002D01*
X017044Y018955D01*
X017059Y018907D01*
X017071Y018858D01*
X017079Y018808D01*
X017083Y018758D01*
X017083Y018708D01*
X017079Y018658D01*
X017071Y018608D01*
X017059Y018559D01*
X017044Y018511D01*
X017025Y018464D01*
X017002Y018419D01*
X016976Y018376D01*
X016947Y018335D01*
X016914Y018296D01*
X016879Y018260D01*
X016841Y018227D01*
X016801Y018197D01*
X016758Y018170D01*
X016713Y018147D01*
X016667Y018127D01*
X016619Y018110D01*
X016571Y018098D01*
X016521Y018089D01*
X016471Y018084D01*
X016420Y018083D01*
X016370Y018086D01*
X016320Y018093D01*
X016271Y018104D01*
X016223Y018118D01*
X016176Y018136D01*
X016130Y018158D01*
X016086Y018183D01*
X016045Y018212D01*
X016006Y018243D01*
X015969Y018278D01*
X015935Y018315D01*
X015904Y018355D01*
X015876Y018397D01*
X015852Y018441D01*
X015831Y018487D01*
X015814Y018535D01*
X015801Y018583D01*
X015791Y018633D01*
X015785Y018683D01*
X015783Y018733D01*
X021783Y018733D02*
X021785Y018783D01*
X021791Y018833D01*
X021801Y018883D01*
X021814Y018931D01*
X021831Y018979D01*
X021852Y019025D01*
X021876Y019069D01*
X021904Y019111D01*
X021935Y019151D01*
X021969Y019188D01*
X022006Y019223D01*
X022045Y019254D01*
X022086Y019283D01*
X022130Y019308D01*
X022176Y019330D01*
X022223Y019348D01*
X022271Y019362D01*
X022320Y019373D01*
X022370Y019380D01*
X022420Y019383D01*
X022471Y019382D01*
X022521Y019377D01*
X022571Y019368D01*
X022619Y019356D01*
X022667Y019339D01*
X022713Y019319D01*
X022758Y019296D01*
X022801Y019269D01*
X022841Y019239D01*
X022879Y019206D01*
X022914Y019170D01*
X022947Y019131D01*
X022976Y019090D01*
X023002Y019047D01*
X023025Y019002D01*
X023044Y018955D01*
X023059Y018907D01*
X023071Y018858D01*
X023079Y018808D01*
X023083Y018758D01*
X023083Y018708D01*
X023079Y018658D01*
X023071Y018608D01*
X023059Y018559D01*
X023044Y018511D01*
X023025Y018464D01*
X023002Y018419D01*
X022976Y018376D01*
X022947Y018335D01*
X022914Y018296D01*
X022879Y018260D01*
X022841Y018227D01*
X022801Y018197D01*
X022758Y018170D01*
X022713Y018147D01*
X022667Y018127D01*
X022619Y018110D01*
X022571Y018098D01*
X022521Y018089D01*
X022471Y018084D01*
X022420Y018083D01*
X022370Y018086D01*
X022320Y018093D01*
X022271Y018104D01*
X022223Y018118D01*
X022176Y018136D01*
X022130Y018158D01*
X022086Y018183D01*
X022045Y018212D01*
X022006Y018243D01*
X021969Y018278D01*
X021935Y018315D01*
X021904Y018355D01*
X021876Y018397D01*
X021852Y018441D01*
X021831Y018487D01*
X021814Y018535D01*
X021801Y018583D01*
X021791Y018633D01*
X021785Y018683D01*
X021783Y018733D01*
X027783Y018733D02*
X027785Y018783D01*
X027791Y018833D01*
X027801Y018883D01*
X027814Y018931D01*
X027831Y018979D01*
X027852Y019025D01*
X027876Y019069D01*
X027904Y019111D01*
X027935Y019151D01*
X027969Y019188D01*
X028006Y019223D01*
X028045Y019254D01*
X028086Y019283D01*
X028130Y019308D01*
X028176Y019330D01*
X028223Y019348D01*
X028271Y019362D01*
X028320Y019373D01*
X028370Y019380D01*
X028420Y019383D01*
X028471Y019382D01*
X028521Y019377D01*
X028571Y019368D01*
X028619Y019356D01*
X028667Y019339D01*
X028713Y019319D01*
X028758Y019296D01*
X028801Y019269D01*
X028841Y019239D01*
X028879Y019206D01*
X028914Y019170D01*
X028947Y019131D01*
X028976Y019090D01*
X029002Y019047D01*
X029025Y019002D01*
X029044Y018955D01*
X029059Y018907D01*
X029071Y018858D01*
X029079Y018808D01*
X029083Y018758D01*
X029083Y018708D01*
X029079Y018658D01*
X029071Y018608D01*
X029059Y018559D01*
X029044Y018511D01*
X029025Y018464D01*
X029002Y018419D01*
X028976Y018376D01*
X028947Y018335D01*
X028914Y018296D01*
X028879Y018260D01*
X028841Y018227D01*
X028801Y018197D01*
X028758Y018170D01*
X028713Y018147D01*
X028667Y018127D01*
X028619Y018110D01*
X028571Y018098D01*
X028521Y018089D01*
X028471Y018084D01*
X028420Y018083D01*
X028370Y018086D01*
X028320Y018093D01*
X028271Y018104D01*
X028223Y018118D01*
X028176Y018136D01*
X028130Y018158D01*
X028086Y018183D01*
X028045Y018212D01*
X028006Y018243D01*
X027969Y018278D01*
X027935Y018315D01*
X027904Y018355D01*
X027876Y018397D01*
X027852Y018441D01*
X027831Y018487D01*
X027814Y018535D01*
X027801Y018583D01*
X027791Y018633D01*
X027785Y018683D01*
X027783Y018733D01*
X037183Y029733D02*
X037185Y029783D01*
X037191Y029833D01*
X037201Y029883D01*
X037214Y029931D01*
X037231Y029979D01*
X037252Y030025D01*
X037276Y030069D01*
X037304Y030111D01*
X037335Y030151D01*
X037369Y030188D01*
X037406Y030223D01*
X037445Y030254D01*
X037486Y030283D01*
X037530Y030308D01*
X037576Y030330D01*
X037623Y030348D01*
X037671Y030362D01*
X037720Y030373D01*
X037770Y030380D01*
X037820Y030383D01*
X037871Y030382D01*
X037921Y030377D01*
X037971Y030368D01*
X038019Y030356D01*
X038067Y030339D01*
X038113Y030319D01*
X038158Y030296D01*
X038201Y030269D01*
X038241Y030239D01*
X038279Y030206D01*
X038314Y030170D01*
X038347Y030131D01*
X038376Y030090D01*
X038402Y030047D01*
X038425Y030002D01*
X038444Y029955D01*
X038459Y029907D01*
X038471Y029858D01*
X038479Y029808D01*
X038483Y029758D01*
X038483Y029708D01*
X038479Y029658D01*
X038471Y029608D01*
X038459Y029559D01*
X038444Y029511D01*
X038425Y029464D01*
X038402Y029419D01*
X038376Y029376D01*
X038347Y029335D01*
X038314Y029296D01*
X038279Y029260D01*
X038241Y029227D01*
X038201Y029197D01*
X038158Y029170D01*
X038113Y029147D01*
X038067Y029127D01*
X038019Y029110D01*
X037971Y029098D01*
X037921Y029089D01*
X037871Y029084D01*
X037820Y029083D01*
X037770Y029086D01*
X037720Y029093D01*
X037671Y029104D01*
X037623Y029118D01*
X037576Y029136D01*
X037530Y029158D01*
X037486Y029183D01*
X037445Y029212D01*
X037406Y029243D01*
X037369Y029278D01*
X037335Y029315D01*
X037304Y029355D01*
X037276Y029397D01*
X037252Y029441D01*
X037231Y029487D01*
X037214Y029535D01*
X037201Y029583D01*
X037191Y029633D01*
X037185Y029683D01*
X037183Y029733D01*
X000583Y029733D02*
X000585Y029783D01*
X000591Y029833D01*
X000601Y029883D01*
X000614Y029931D01*
X000631Y029979D01*
X000652Y030025D01*
X000676Y030069D01*
X000704Y030111D01*
X000735Y030151D01*
X000769Y030188D01*
X000806Y030223D01*
X000845Y030254D01*
X000886Y030283D01*
X000930Y030308D01*
X000976Y030330D01*
X001023Y030348D01*
X001071Y030362D01*
X001120Y030373D01*
X001170Y030380D01*
X001220Y030383D01*
X001271Y030382D01*
X001321Y030377D01*
X001371Y030368D01*
X001419Y030356D01*
X001467Y030339D01*
X001513Y030319D01*
X001558Y030296D01*
X001601Y030269D01*
X001641Y030239D01*
X001679Y030206D01*
X001714Y030170D01*
X001747Y030131D01*
X001776Y030090D01*
X001802Y030047D01*
X001825Y030002D01*
X001844Y029955D01*
X001859Y029907D01*
X001871Y029858D01*
X001879Y029808D01*
X001883Y029758D01*
X001883Y029708D01*
X001879Y029658D01*
X001871Y029608D01*
X001859Y029559D01*
X001844Y029511D01*
X001825Y029464D01*
X001802Y029419D01*
X001776Y029376D01*
X001747Y029335D01*
X001714Y029296D01*
X001679Y029260D01*
X001641Y029227D01*
X001601Y029197D01*
X001558Y029170D01*
X001513Y029147D01*
X001467Y029127D01*
X001419Y029110D01*
X001371Y029098D01*
X001321Y029089D01*
X001271Y029084D01*
X001220Y029083D01*
X001170Y029086D01*
X001120Y029093D01*
X001071Y029104D01*
X001023Y029118D01*
X000976Y029136D01*
X000930Y029158D01*
X000886Y029183D01*
X000845Y029212D01*
X000806Y029243D01*
X000769Y029278D01*
X000735Y029315D01*
X000704Y029355D01*
X000676Y029397D01*
X000652Y029441D01*
X000631Y029487D01*
X000614Y029535D01*
X000601Y029583D01*
X000591Y029633D01*
X000585Y029683D01*
X000583Y029733D01*
X037283Y001233D02*
X037285Y001283D01*
X037291Y001333D01*
X037301Y001383D01*
X037314Y001431D01*
X037331Y001479D01*
X037352Y001525D01*
X037376Y001569D01*
X037404Y001611D01*
X037435Y001651D01*
X037469Y001688D01*
X037506Y001723D01*
X037545Y001754D01*
X037586Y001783D01*
X037630Y001808D01*
X037676Y001830D01*
X037723Y001848D01*
X037771Y001862D01*
X037820Y001873D01*
X037870Y001880D01*
X037920Y001883D01*
X037971Y001882D01*
X038021Y001877D01*
X038071Y001868D01*
X038119Y001856D01*
X038167Y001839D01*
X038213Y001819D01*
X038258Y001796D01*
X038301Y001769D01*
X038341Y001739D01*
X038379Y001706D01*
X038414Y001670D01*
X038447Y001631D01*
X038476Y001590D01*
X038502Y001547D01*
X038525Y001502D01*
X038544Y001455D01*
X038559Y001407D01*
X038571Y001358D01*
X038579Y001308D01*
X038583Y001258D01*
X038583Y001208D01*
X038579Y001158D01*
X038571Y001108D01*
X038559Y001059D01*
X038544Y001011D01*
X038525Y000964D01*
X038502Y000919D01*
X038476Y000876D01*
X038447Y000835D01*
X038414Y000796D01*
X038379Y000760D01*
X038341Y000727D01*
X038301Y000697D01*
X038258Y000670D01*
X038213Y000647D01*
X038167Y000627D01*
X038119Y000610D01*
X038071Y000598D01*
X038021Y000589D01*
X037971Y000584D01*
X037920Y000583D01*
X037870Y000586D01*
X037820Y000593D01*
X037771Y000604D01*
X037723Y000618D01*
X037676Y000636D01*
X037630Y000658D01*
X037586Y000683D01*
X037545Y000712D01*
X037506Y000743D01*
X037469Y000778D01*
X037435Y000815D01*
X037404Y000855D01*
X037376Y000897D01*
X037352Y000941D01*
X037331Y000987D01*
X037314Y001035D01*
X037301Y001083D01*
X037291Y001133D01*
X037285Y001183D01*
X037283Y001233D01*
D11*
X037186Y004088D02*
X036686Y004088D01*
X036436Y004338D01*
X036436Y004838D01*
X036686Y005088D01*
X037186Y005088D01*
X037436Y004838D01*
X037686Y005088D01*
X038186Y005088D01*
X038436Y004838D01*
X038436Y004338D01*
X038186Y004088D01*
X037686Y004088D01*
X037436Y004338D01*
X037186Y004088D01*
X037436Y004338D02*
X037436Y004838D01*
X032433Y004633D02*
X032433Y003033D01*
X031433Y003033D01*
X031433Y004633D01*
X032433Y004633D01*
X032183Y004233D02*
X031933Y003833D01*
X032183Y003833D01*
X031933Y003833D02*
X031933Y003583D01*
X031933Y003833D02*
X031683Y003833D01*
X031933Y003833D02*
X031683Y004233D01*
X032183Y004233D01*
X031933Y004433D02*
X031933Y003833D01*
X026433Y004633D02*
X026433Y003033D01*
X025433Y003033D01*
X025433Y004633D01*
X026433Y004633D01*
X026183Y004233D02*
X025933Y003833D01*
X026183Y003833D01*
X025933Y003833D02*
X025683Y003833D01*
X025933Y003833D02*
X025683Y004233D01*
X026183Y004233D01*
X025933Y004433D02*
X025933Y003833D01*
X025933Y003583D01*
X020433Y003033D02*
X019433Y003033D01*
X019433Y004633D01*
X020433Y004633D01*
X020433Y003033D01*
X019933Y003583D02*
X019933Y003833D01*
X020183Y003833D01*
X019933Y003833D02*
X019683Y004233D01*
X020183Y004233D01*
X019933Y003833D01*
X019683Y003833D01*
X019933Y003833D02*
X019933Y004433D01*
X014433Y004633D02*
X014433Y003033D01*
X013433Y003033D01*
X013433Y004633D01*
X014433Y004633D01*
X014183Y004233D02*
X013933Y003833D01*
X014183Y003833D01*
X013933Y003833D02*
X013933Y003583D01*
X013933Y003833D02*
X013683Y003833D01*
X013933Y003833D02*
X013683Y004233D01*
X014183Y004233D01*
X013933Y004433D02*
X013933Y003833D01*
X008440Y003037D02*
X007440Y003037D01*
X007440Y004637D01*
X008440Y004637D01*
X008440Y003037D01*
X007940Y003587D02*
X007940Y003837D01*
X008190Y003837D01*
X007940Y003837D02*
X007690Y003837D01*
X007940Y003837D02*
X007690Y004237D01*
X008190Y004237D01*
X007940Y003837D01*
X007940Y004437D01*
X008383Y013833D02*
X008383Y018733D01*
X008733Y018733D01*
X008733Y019333D01*
X008383Y019333D01*
X008383Y020083D01*
X012483Y020083D01*
X012483Y019333D01*
X012133Y019333D01*
X012133Y018733D01*
X012483Y018733D01*
X012483Y013833D01*
X008383Y013833D01*
X006486Y013836D02*
X006486Y018736D01*
X006136Y018736D01*
X006136Y019336D01*
X006486Y019336D01*
X006486Y020086D01*
X002386Y020086D01*
X002386Y019336D01*
X002736Y019336D01*
X002736Y018736D01*
X002386Y018736D01*
X002386Y013836D01*
X006486Y013836D01*
X003726Y018736D02*
X003728Y018789D01*
X003734Y018842D01*
X003744Y018894D01*
X003758Y018945D01*
X003775Y018995D01*
X003796Y019044D01*
X003821Y019091D01*
X003849Y019136D01*
X003881Y019179D01*
X003916Y019219D01*
X003953Y019256D01*
X003993Y019291D01*
X004036Y019323D01*
X004081Y019351D01*
X004128Y019376D01*
X004177Y019397D01*
X004227Y019414D01*
X004278Y019428D01*
X004330Y019438D01*
X004383Y019444D01*
X004436Y019446D01*
X004489Y019444D01*
X004542Y019438D01*
X004594Y019428D01*
X004645Y019414D01*
X004695Y019397D01*
X004744Y019376D01*
X004791Y019351D01*
X004836Y019323D01*
X004879Y019291D01*
X004919Y019256D01*
X004956Y019219D01*
X004991Y019179D01*
X005023Y019136D01*
X005051Y019091D01*
X005076Y019044D01*
X005097Y018995D01*
X005114Y018945D01*
X005128Y018894D01*
X005138Y018842D01*
X005144Y018789D01*
X005146Y018736D01*
X005144Y018683D01*
X005138Y018630D01*
X005128Y018578D01*
X005114Y018527D01*
X005097Y018477D01*
X005076Y018428D01*
X005051Y018381D01*
X005023Y018336D01*
X004991Y018293D01*
X004956Y018253D01*
X004919Y018216D01*
X004879Y018181D01*
X004836Y018149D01*
X004791Y018121D01*
X004744Y018096D01*
X004695Y018075D01*
X004645Y018058D01*
X004594Y018044D01*
X004542Y018034D01*
X004489Y018028D01*
X004436Y018026D01*
X004383Y018028D01*
X004330Y018034D01*
X004278Y018044D01*
X004227Y018058D01*
X004177Y018075D01*
X004128Y018096D01*
X004081Y018121D01*
X004036Y018149D01*
X003993Y018181D01*
X003953Y018216D01*
X003916Y018253D01*
X003881Y018293D01*
X003849Y018336D01*
X003821Y018381D01*
X003796Y018428D01*
X003775Y018477D01*
X003758Y018527D01*
X003744Y018578D01*
X003734Y018630D01*
X003728Y018683D01*
X003726Y018736D01*
X006472Y021663D02*
X006258Y021876D01*
X006258Y022090D01*
X006472Y022303D01*
X006233Y022433D02*
X006233Y022483D01*
X006233Y023183D01*
X006233Y023233D01*
X008383Y023233D01*
X008400Y023231D01*
X008417Y023227D01*
X008433Y023220D01*
X008447Y023210D01*
X008460Y023197D01*
X008470Y023183D01*
X008477Y023167D01*
X008481Y023150D01*
X008483Y023133D01*
X008483Y022533D01*
X008481Y022516D01*
X008477Y022499D01*
X008470Y022483D01*
X008460Y022469D01*
X008447Y022456D01*
X008433Y022446D01*
X008417Y022439D01*
X008400Y022435D01*
X008383Y022433D01*
X006233Y022433D01*
X006233Y022483D02*
X006083Y022483D01*
X006083Y023183D01*
X006233Y023183D01*
X006883Y022833D02*
X007083Y022833D01*
X007083Y022633D01*
X007233Y022633D02*
X007383Y022633D01*
X007383Y023033D01*
X007233Y023033D01*
X007233Y022633D01*
X007083Y022833D02*
X007083Y023033D01*
X007533Y023033D02*
X007533Y022833D01*
X007533Y022633D01*
X007533Y022833D02*
X007733Y022833D01*
X007977Y022303D02*
X008190Y022090D01*
X008190Y021876D01*
X007977Y021663D01*
X007759Y021663D02*
X007439Y021663D01*
X007332Y021769D01*
X007332Y021983D01*
X007439Y022090D01*
X007759Y022090D01*
X007115Y022090D02*
X006794Y022090D01*
X006688Y021983D01*
X006688Y021769D01*
X006794Y021663D01*
X007115Y021663D01*
X006933Y021683D02*
X006933Y023983D01*
X002933Y023983D01*
X002933Y023233D01*
X002972Y023231D01*
X003011Y023225D01*
X003049Y023216D01*
X003086Y023203D01*
X003122Y023186D01*
X003155Y023166D01*
X003187Y023142D01*
X003216Y023116D01*
X003242Y023087D01*
X003266Y023055D01*
X003286Y023022D01*
X003303Y022986D01*
X003316Y022949D01*
X003325Y022911D01*
X003331Y022872D01*
X003333Y022833D01*
X003331Y022794D01*
X003325Y022755D01*
X003316Y022717D01*
X003303Y022680D01*
X003286Y022644D01*
X003266Y022611D01*
X003242Y022579D01*
X003216Y022550D01*
X003187Y022524D01*
X003155Y022500D01*
X003122Y022480D01*
X003086Y022463D01*
X003049Y022450D01*
X003011Y022441D01*
X002972Y022435D01*
X002933Y022433D01*
X002933Y021683D01*
X006933Y021683D01*
X009051Y021769D02*
X009158Y021663D01*
X009371Y021663D01*
X009478Y021769D01*
X009478Y021876D01*
X009371Y021983D01*
X009264Y021983D01*
X009371Y021983D02*
X009478Y022090D01*
X009478Y022196D01*
X009371Y022303D01*
X009158Y022303D01*
X009051Y022196D01*
X009696Y021769D02*
X009802Y021769D01*
X009802Y021663D01*
X009696Y021663D01*
X009696Y021769D01*
X010018Y021769D02*
X010124Y021663D01*
X010338Y021663D01*
X010445Y021769D01*
X010445Y022196D01*
X010018Y021769D01*
X010018Y022196D01*
X010124Y022303D01*
X010338Y022303D01*
X010445Y022196D01*
X010770Y022663D02*
X011090Y022663D01*
X011197Y022769D01*
X011197Y022983D01*
X011090Y023090D01*
X010770Y023090D01*
X010770Y023303D02*
X010770Y022663D01*
X011307Y022303D02*
X011307Y021663D01*
X011627Y021663D01*
X011734Y021769D01*
X011734Y021983D01*
X011627Y022090D01*
X011307Y022090D01*
X011628Y022449D02*
X011735Y022449D01*
X011841Y022556D01*
X011841Y023090D01*
X011414Y023090D02*
X011414Y022769D01*
X011521Y022663D01*
X011841Y022663D01*
X011951Y022090D02*
X011951Y021769D01*
X012058Y021663D01*
X012378Y021663D01*
X012378Y021556D02*
X012272Y021449D01*
X012165Y021449D01*
X012378Y021556D02*
X012378Y022090D01*
X012596Y021983D02*
X013023Y021983D01*
X013240Y022090D02*
X013240Y021663D01*
X013667Y021663D02*
X013667Y021983D01*
X013561Y022090D01*
X013240Y022090D01*
X013455Y022663D02*
X013348Y022769D01*
X013348Y022983D01*
X013455Y023090D01*
X013668Y023090D01*
X013775Y022983D01*
X013775Y022876D01*
X013348Y022876D01*
X013455Y022663D02*
X013668Y022663D01*
X013993Y022663D02*
X013993Y023090D01*
X014206Y023090D02*
X013993Y022876D01*
X014206Y023090D02*
X014313Y023090D01*
X014636Y023090D02*
X014850Y023090D01*
X014957Y022983D01*
X014957Y022663D01*
X014636Y022663D01*
X014530Y022769D01*
X014636Y022876D01*
X014957Y022876D01*
X015174Y022983D02*
X015601Y022983D01*
X015819Y023090D02*
X016246Y023090D01*
X015819Y022663D01*
X016246Y022663D01*
X016139Y022090D02*
X015925Y022090D01*
X016139Y022090D02*
X016246Y021983D01*
X016246Y021663D01*
X015925Y021663D01*
X015819Y021769D01*
X015925Y021876D01*
X016246Y021876D01*
X015601Y021769D02*
X015494Y021663D01*
X015174Y021663D01*
X015281Y021876D02*
X015174Y021983D01*
X015281Y022090D01*
X015601Y022090D01*
X015494Y021876D02*
X015281Y021876D01*
X015494Y021876D02*
X015601Y021769D01*
X014956Y021983D02*
X014529Y021983D01*
X014312Y022090D02*
X013992Y022090D01*
X013885Y021983D01*
X013885Y021769D01*
X013992Y021663D01*
X014312Y021663D01*
X015174Y022663D02*
X015174Y023303D01*
X015172Y023663D02*
X014959Y023663D01*
X014852Y023769D01*
X015279Y024196D01*
X015279Y023769D01*
X015172Y023663D01*
X015497Y023663D02*
X015603Y023663D01*
X015603Y023769D01*
X015497Y023769D01*
X015497Y023663D01*
X015819Y023769D02*
X015926Y023663D01*
X016139Y023663D01*
X016246Y023769D01*
X016246Y023983D01*
X016139Y024090D01*
X016032Y024090D01*
X015819Y023983D01*
X015819Y024303D01*
X016246Y024303D01*
X015926Y024663D02*
X015926Y025090D01*
X016139Y025090D02*
X015926Y024876D01*
X015708Y024876D02*
X015281Y024876D01*
X015281Y024769D02*
X015281Y024983D01*
X015388Y025090D01*
X015602Y025090D01*
X015708Y024983D01*
X015708Y024876D01*
X015602Y024663D02*
X015388Y024663D01*
X015281Y024769D01*
X015064Y024769D02*
X014957Y024876D01*
X014744Y024876D01*
X014637Y024983D01*
X014744Y025090D01*
X015064Y025090D01*
X015064Y024769D02*
X014957Y024663D01*
X014637Y024663D01*
X014419Y024769D02*
X014419Y024983D01*
X014313Y025090D01*
X014099Y025090D01*
X013992Y024983D01*
X013992Y024769D01*
X014099Y024663D01*
X014313Y024663D01*
X014419Y024769D01*
X013775Y024769D02*
X013775Y025196D01*
X013668Y025303D01*
X013348Y025303D01*
X013348Y024663D01*
X013668Y024663D01*
X013775Y024769D01*
X014207Y024090D02*
X014421Y023663D01*
X014634Y024090D01*
X014852Y024196D02*
X014852Y023769D01*
X014852Y024196D02*
X014959Y024303D01*
X015172Y024303D01*
X015279Y024196D01*
X015601Y023303D02*
X015601Y022663D01*
X013130Y023303D02*
X012703Y023303D01*
X012917Y023303D02*
X012917Y022663D01*
X012487Y024663D02*
X012274Y024663D01*
X012380Y024663D02*
X012380Y025303D01*
X012274Y025303D01*
X012056Y024983D02*
X012056Y024876D01*
X011629Y024876D01*
X011629Y024769D02*
X011629Y024983D01*
X011736Y025090D01*
X011949Y025090D01*
X012056Y024983D01*
X011949Y024663D02*
X011736Y024663D01*
X011629Y024769D01*
X011412Y024663D02*
X011412Y024983D01*
X011305Y025090D01*
X010985Y025090D01*
X010985Y024663D01*
X010767Y024663D02*
X010767Y024983D01*
X010660Y025090D01*
X010340Y025090D01*
X010340Y024663D01*
X010123Y024663D02*
X010123Y024983D01*
X010016Y025090D01*
X009802Y025090D01*
X009802Y024876D02*
X010123Y024876D01*
X010123Y024663D02*
X009802Y024663D01*
X009696Y024769D01*
X009802Y024876D01*
X009478Y024983D02*
X009478Y024663D01*
X009478Y024983D02*
X009371Y025090D01*
X009158Y025090D01*
X009051Y024983D01*
X008833Y025196D02*
X008727Y025303D01*
X008513Y025303D01*
X008406Y025196D01*
X008406Y024769D01*
X008513Y024663D01*
X008727Y024663D01*
X008833Y024769D01*
X009051Y024663D02*
X009051Y025303D01*
X007544Y025303D02*
X007117Y025303D01*
X007117Y024983D01*
X007331Y025090D01*
X007438Y025090D01*
X007544Y024983D01*
X007544Y024769D01*
X007438Y024663D01*
X007224Y024663D01*
X007117Y024769D01*
X014383Y020083D02*
X014383Y019333D01*
X014733Y019333D01*
X014733Y018733D01*
X014383Y018733D01*
X014383Y013833D01*
X018483Y013833D01*
X018483Y018733D01*
X018133Y018733D01*
X018133Y019333D01*
X018483Y019333D01*
X018483Y020083D01*
X014383Y020083D01*
X015723Y018733D02*
X015725Y018786D01*
X015731Y018839D01*
X015741Y018891D01*
X015755Y018942D01*
X015772Y018992D01*
X015793Y019041D01*
X015818Y019088D01*
X015846Y019133D01*
X015878Y019176D01*
X015913Y019216D01*
X015950Y019253D01*
X015990Y019288D01*
X016033Y019320D01*
X016078Y019348D01*
X016125Y019373D01*
X016174Y019394D01*
X016224Y019411D01*
X016275Y019425D01*
X016327Y019435D01*
X016380Y019441D01*
X016433Y019443D01*
X016486Y019441D01*
X016539Y019435D01*
X016591Y019425D01*
X016642Y019411D01*
X016692Y019394D01*
X016741Y019373D01*
X016788Y019348D01*
X016833Y019320D01*
X016876Y019288D01*
X016916Y019253D01*
X016953Y019216D01*
X016988Y019176D01*
X017020Y019133D01*
X017048Y019088D01*
X017073Y019041D01*
X017094Y018992D01*
X017111Y018942D01*
X017125Y018891D01*
X017135Y018839D01*
X017141Y018786D01*
X017143Y018733D01*
X017141Y018680D01*
X017135Y018627D01*
X017125Y018575D01*
X017111Y018524D01*
X017094Y018474D01*
X017073Y018425D01*
X017048Y018378D01*
X017020Y018333D01*
X016988Y018290D01*
X016953Y018250D01*
X016916Y018213D01*
X016876Y018178D01*
X016833Y018146D01*
X016788Y018118D01*
X016741Y018093D01*
X016692Y018072D01*
X016642Y018055D01*
X016591Y018041D01*
X016539Y018031D01*
X016486Y018025D01*
X016433Y018023D01*
X016380Y018025D01*
X016327Y018031D01*
X016275Y018041D01*
X016224Y018055D01*
X016174Y018072D01*
X016125Y018093D01*
X016078Y018118D01*
X016033Y018146D01*
X015990Y018178D01*
X015950Y018213D01*
X015913Y018250D01*
X015878Y018290D01*
X015846Y018333D01*
X015818Y018378D01*
X015793Y018425D01*
X015772Y018474D01*
X015755Y018524D01*
X015741Y018575D01*
X015731Y018627D01*
X015725Y018680D01*
X015723Y018733D01*
X020383Y018733D02*
X020733Y018733D01*
X020733Y019333D01*
X020383Y019333D01*
X020383Y020083D01*
X024483Y020083D01*
X024483Y019333D01*
X024133Y019333D01*
X024133Y018733D01*
X024483Y018733D01*
X024483Y013833D01*
X020383Y013833D01*
X020383Y018733D01*
X021723Y018733D02*
X021725Y018786D01*
X021731Y018839D01*
X021741Y018891D01*
X021755Y018942D01*
X021772Y018992D01*
X021793Y019041D01*
X021818Y019088D01*
X021846Y019133D01*
X021878Y019176D01*
X021913Y019216D01*
X021950Y019253D01*
X021990Y019288D01*
X022033Y019320D01*
X022078Y019348D01*
X022125Y019373D01*
X022174Y019394D01*
X022224Y019411D01*
X022275Y019425D01*
X022327Y019435D01*
X022380Y019441D01*
X022433Y019443D01*
X022486Y019441D01*
X022539Y019435D01*
X022591Y019425D01*
X022642Y019411D01*
X022692Y019394D01*
X022741Y019373D01*
X022788Y019348D01*
X022833Y019320D01*
X022876Y019288D01*
X022916Y019253D01*
X022953Y019216D01*
X022988Y019176D01*
X023020Y019133D01*
X023048Y019088D01*
X023073Y019041D01*
X023094Y018992D01*
X023111Y018942D01*
X023125Y018891D01*
X023135Y018839D01*
X023141Y018786D01*
X023143Y018733D01*
X023141Y018680D01*
X023135Y018627D01*
X023125Y018575D01*
X023111Y018524D01*
X023094Y018474D01*
X023073Y018425D01*
X023048Y018378D01*
X023020Y018333D01*
X022988Y018290D01*
X022953Y018250D01*
X022916Y018213D01*
X022876Y018178D01*
X022833Y018146D01*
X022788Y018118D01*
X022741Y018093D01*
X022692Y018072D01*
X022642Y018055D01*
X022591Y018041D01*
X022539Y018031D01*
X022486Y018025D01*
X022433Y018023D01*
X022380Y018025D01*
X022327Y018031D01*
X022275Y018041D01*
X022224Y018055D01*
X022174Y018072D01*
X022125Y018093D01*
X022078Y018118D01*
X022033Y018146D01*
X021990Y018178D01*
X021950Y018213D01*
X021913Y018250D01*
X021878Y018290D01*
X021846Y018333D01*
X021818Y018378D01*
X021793Y018425D01*
X021772Y018474D01*
X021755Y018524D01*
X021741Y018575D01*
X021731Y018627D01*
X021725Y018680D01*
X021723Y018733D01*
X026383Y018733D02*
X026733Y018733D01*
X026733Y019333D01*
X026383Y019333D01*
X026383Y020083D01*
X030483Y020083D01*
X030483Y019333D01*
X030133Y019333D01*
X030133Y018733D01*
X030483Y018733D01*
X030483Y013833D01*
X026383Y013833D01*
X026383Y018733D01*
X027723Y018733D02*
X027725Y018786D01*
X027731Y018839D01*
X027741Y018891D01*
X027755Y018942D01*
X027772Y018992D01*
X027793Y019041D01*
X027818Y019088D01*
X027846Y019133D01*
X027878Y019176D01*
X027913Y019216D01*
X027950Y019253D01*
X027990Y019288D01*
X028033Y019320D01*
X028078Y019348D01*
X028125Y019373D01*
X028174Y019394D01*
X028224Y019411D01*
X028275Y019425D01*
X028327Y019435D01*
X028380Y019441D01*
X028433Y019443D01*
X028486Y019441D01*
X028539Y019435D01*
X028591Y019425D01*
X028642Y019411D01*
X028692Y019394D01*
X028741Y019373D01*
X028788Y019348D01*
X028833Y019320D01*
X028876Y019288D01*
X028916Y019253D01*
X028953Y019216D01*
X028988Y019176D01*
X029020Y019133D01*
X029048Y019088D01*
X029073Y019041D01*
X029094Y018992D01*
X029111Y018942D01*
X029125Y018891D01*
X029135Y018839D01*
X029141Y018786D01*
X029143Y018733D01*
X029141Y018680D01*
X029135Y018627D01*
X029125Y018575D01*
X029111Y018524D01*
X029094Y018474D01*
X029073Y018425D01*
X029048Y018378D01*
X029020Y018333D01*
X028988Y018290D01*
X028953Y018250D01*
X028916Y018213D01*
X028876Y018178D01*
X028833Y018146D01*
X028788Y018118D01*
X028741Y018093D01*
X028692Y018072D01*
X028642Y018055D01*
X028591Y018041D01*
X028539Y018031D01*
X028486Y018025D01*
X028433Y018023D01*
X028380Y018025D01*
X028327Y018031D01*
X028275Y018041D01*
X028224Y018055D01*
X028174Y018072D01*
X028125Y018093D01*
X028078Y018118D01*
X028033Y018146D01*
X027990Y018178D01*
X027950Y018213D01*
X027913Y018250D01*
X027878Y018290D01*
X027846Y018333D01*
X027818Y018378D01*
X027793Y018425D01*
X027772Y018474D01*
X027755Y018524D01*
X027741Y018575D01*
X027731Y018627D01*
X027725Y018680D01*
X027723Y018733D01*
X032433Y019333D02*
X032683Y019083D01*
X033183Y019083D01*
X033433Y019333D01*
X033433Y019833D01*
X033183Y020083D01*
X033433Y020333D01*
X033433Y020833D01*
X033183Y021083D01*
X033433Y021333D01*
X033433Y021833D01*
X033183Y022083D01*
X032683Y022083D01*
X032433Y021833D01*
X032433Y021333D01*
X032683Y021083D01*
X033183Y021083D01*
X032683Y021083D02*
X032433Y020833D01*
X032433Y020333D01*
X032683Y020083D01*
X033183Y020083D01*
X032683Y020083D02*
X032433Y019833D01*
X032433Y019333D01*
X037433Y020083D02*
X037683Y019833D01*
X038183Y019833D01*
X038433Y020083D01*
X038433Y020583D01*
X038183Y020833D01*
X038433Y021083D01*
X038433Y021583D01*
X038183Y021833D01*
X038433Y022083D01*
X038433Y022583D01*
X038183Y022833D01*
X037683Y022833D01*
X037433Y022583D01*
X037433Y022083D01*
X037683Y021833D01*
X038183Y021833D01*
X037683Y021833D02*
X037433Y021583D01*
X037433Y021083D01*
X037683Y020833D01*
X038183Y020833D01*
X037683Y020833D02*
X037433Y020583D01*
X037433Y020083D01*
X037683Y017083D02*
X038183Y017083D01*
X038433Y016833D01*
X038433Y016333D01*
X038183Y016083D01*
X038433Y015833D01*
X038433Y015333D01*
X038183Y015083D01*
X038433Y014833D01*
X038433Y014333D01*
X038183Y014083D01*
X038433Y013833D01*
X038433Y013333D01*
X038183Y013083D01*
X038433Y012833D01*
X038433Y012333D01*
X038183Y012083D01*
X038433Y011833D01*
X038433Y011333D01*
X038183Y011083D01*
X037683Y011083D01*
X037433Y011333D01*
X037433Y011833D01*
X037683Y012083D01*
X037433Y012333D01*
X037433Y012833D01*
X037683Y013083D01*
X038183Y013083D01*
X037683Y013083D02*
X037433Y013333D01*
X037433Y013833D01*
X037683Y014083D01*
X037433Y014333D01*
X037433Y014833D01*
X037683Y015083D01*
X037433Y015333D01*
X037433Y015833D01*
X037683Y016083D01*
X037433Y016333D01*
X037433Y016833D01*
X037683Y017083D01*
X037683Y016083D02*
X038183Y016083D01*
X038183Y015083D02*
X037683Y015083D01*
X037683Y014083D02*
X038183Y014083D01*
X038183Y012083D02*
X037683Y012083D01*
X033429Y012330D02*
X033179Y012080D01*
X033429Y011830D01*
X033429Y011330D01*
X033179Y011080D01*
X032679Y011080D01*
X032429Y011330D01*
X032429Y011830D01*
X032679Y012080D01*
X032429Y012330D01*
X032429Y012830D01*
X032679Y013080D01*
X033179Y013080D01*
X033429Y012830D01*
X033429Y012330D01*
X033179Y012080D02*
X032679Y012080D01*
X032679Y013080D02*
X032429Y013330D01*
X032429Y013830D01*
X032679Y014080D01*
X032429Y014330D01*
X032429Y014830D01*
X032679Y015080D01*
X033179Y015080D01*
X033429Y014830D01*
X033429Y014330D01*
X033179Y014080D01*
X033429Y013830D01*
X033429Y013330D01*
X033179Y013080D01*
X033179Y014080D02*
X032679Y014080D01*
X037683Y023083D02*
X037433Y023333D01*
X037433Y023833D01*
X037683Y024083D01*
X037433Y024333D01*
X037433Y024833D01*
X037683Y025083D01*
X038183Y025083D01*
X038433Y024833D01*
X038433Y024333D01*
X038183Y024083D01*
X038433Y023833D01*
X038433Y023333D01*
X038183Y023083D01*
X037683Y023083D01*
X037683Y024083D02*
X038183Y024083D01*
X038183Y025083D02*
X038433Y025333D01*
X038433Y025833D01*
X038183Y026083D01*
X038433Y026333D01*
X038433Y026833D01*
X038183Y027083D01*
X037683Y027083D01*
X037433Y026833D01*
X037433Y026333D01*
X037683Y026083D01*
X038183Y026083D01*
X037683Y026083D02*
X037433Y025833D01*
X037433Y025333D01*
X037683Y025083D01*
X029410Y026538D02*
X029430Y026504D01*
X029446Y026468D01*
X029459Y026431D01*
X029468Y026392D01*
X029473Y026353D01*
X029474Y026314D01*
X029471Y026275D01*
X029465Y026236D01*
X029455Y026198D01*
X029441Y026161D01*
X029423Y026126D01*
X029402Y026093D01*
X029378Y026062D01*
X029351Y026033D01*
X029321Y026008D01*
X029289Y025985D01*
X029255Y025965D01*
X029219Y025950D01*
X029182Y025937D01*
X029143Y025929D01*
X029104Y025924D01*
X029065Y025923D01*
X029026Y025926D01*
X028987Y025933D01*
X028949Y025944D01*
X028913Y025958D01*
X028878Y025976D01*
X028845Y025997D01*
X028814Y026022D01*
X028785Y026049D01*
X028760Y026079D01*
X028738Y026111D01*
X028719Y026146D01*
X028703Y026182D01*
X028691Y026219D01*
X028683Y026258D01*
X028679Y026297D01*
X028678Y026336D01*
X028682Y026375D01*
X028689Y026414D01*
X028700Y026452D01*
X028715Y026488D01*
X028733Y026523D01*
X028755Y026556D01*
X028779Y026586D01*
X028807Y026614D01*
X028837Y026639D01*
X028870Y026661D01*
X028904Y026680D01*
X028941Y026695D01*
X028978Y026707D01*
X029017Y026715D01*
X029056Y026718D01*
X029095Y026719D01*
X029134Y026715D01*
X016246Y025090D02*
X016139Y025090D01*
X009723Y018733D02*
X009725Y018786D01*
X009731Y018839D01*
X009741Y018891D01*
X009755Y018942D01*
X009772Y018992D01*
X009793Y019041D01*
X009818Y019088D01*
X009846Y019133D01*
X009878Y019176D01*
X009913Y019216D01*
X009950Y019253D01*
X009990Y019288D01*
X010033Y019320D01*
X010078Y019348D01*
X010125Y019373D01*
X010174Y019394D01*
X010224Y019411D01*
X010275Y019425D01*
X010327Y019435D01*
X010380Y019441D01*
X010433Y019443D01*
X010486Y019441D01*
X010539Y019435D01*
X010591Y019425D01*
X010642Y019411D01*
X010692Y019394D01*
X010741Y019373D01*
X010788Y019348D01*
X010833Y019320D01*
X010876Y019288D01*
X010916Y019253D01*
X010953Y019216D01*
X010988Y019176D01*
X011020Y019133D01*
X011048Y019088D01*
X011073Y019041D01*
X011094Y018992D01*
X011111Y018942D01*
X011125Y018891D01*
X011135Y018839D01*
X011141Y018786D01*
X011143Y018733D01*
X011141Y018680D01*
X011135Y018627D01*
X011125Y018575D01*
X011111Y018524D01*
X011094Y018474D01*
X011073Y018425D01*
X011048Y018378D01*
X011020Y018333D01*
X010988Y018290D01*
X010953Y018250D01*
X010916Y018213D01*
X010876Y018178D01*
X010833Y018146D01*
X010788Y018118D01*
X010741Y018093D01*
X010692Y018072D01*
X010642Y018055D01*
X010591Y018041D01*
X010539Y018031D01*
X010486Y018025D01*
X010433Y018023D01*
X010380Y018025D01*
X010327Y018031D01*
X010275Y018041D01*
X010224Y018055D01*
X010174Y018072D01*
X010125Y018093D01*
X010078Y018118D01*
X010033Y018146D01*
X009990Y018178D01*
X009950Y018213D01*
X009913Y018250D01*
X009878Y018290D01*
X009846Y018333D01*
X009818Y018378D01*
X009793Y018425D01*
X009772Y018474D01*
X009755Y018524D01*
X009741Y018575D01*
X009731Y018627D01*
X009725Y018680D01*
X009723Y018733D01*
D12*
X005883Y022633D02*
X005733Y022633D01*
X005733Y023033D02*
X005933Y023033D01*
X004127Y004947D02*
X004127Y003719D01*
X003513Y004333D02*
X004741Y004333D01*
X005513Y004333D02*
X006741Y004333D01*
X009513Y004333D02*
X010741Y004333D01*
X011513Y004333D02*
X012741Y004333D01*
X010127Y004947D02*
X010127Y003719D01*
X015513Y004333D02*
X016741Y004333D01*
X016127Y004947D02*
X016127Y003719D01*
X017513Y004333D02*
X018741Y004333D01*
X021513Y004333D02*
X022741Y004333D01*
X023513Y004333D02*
X024741Y004333D01*
X022127Y004947D02*
X022127Y003719D01*
X027513Y004333D02*
X028741Y004333D01*
X029513Y004333D02*
X030741Y004333D01*
X028127Y004947D02*
X028127Y003719D01*
D13*
X027712Y002699D02*
X027788Y002622D01*
X027788Y002469D01*
X027712Y002392D01*
X027558Y002392D02*
X027481Y002546D01*
X027481Y002622D01*
X027558Y002699D01*
X027712Y002699D01*
X027558Y002392D02*
X027328Y002392D01*
X027328Y002699D01*
X027405Y002239D02*
X027558Y002239D01*
X027635Y002162D01*
X027635Y001932D01*
X027788Y001932D02*
X027328Y001932D01*
X027328Y002162D01*
X027405Y002239D01*
X027328Y001778D02*
X027788Y001778D01*
X027788Y001471D02*
X027328Y001471D01*
X027481Y001625D01*
X027328Y001778D01*
X027328Y001318D02*
X027712Y001318D01*
X027788Y001241D01*
X027788Y001088D01*
X027712Y001011D01*
X027328Y001011D01*
X027405Y000858D02*
X027558Y000858D01*
X027635Y000781D01*
X027635Y000551D01*
X027788Y000551D02*
X027328Y000551D01*
X027328Y000781D01*
X027405Y000858D01*
X021788Y001088D02*
X021788Y001241D01*
X021712Y001318D01*
X021328Y001318D01*
X021328Y001471D02*
X021481Y001625D01*
X021328Y001778D01*
X021788Y001778D01*
X021788Y001932D02*
X021328Y001932D01*
X021328Y002162D01*
X021405Y002239D01*
X021558Y002239D01*
X021635Y002162D01*
X021635Y001932D01*
X021558Y002392D02*
X021558Y002699D01*
X021788Y002622D02*
X021328Y002622D01*
X021558Y002392D01*
X021788Y001471D02*
X021328Y001471D01*
X021328Y001011D02*
X021712Y001011D01*
X021788Y001088D01*
X021558Y000858D02*
X021405Y000858D01*
X021328Y000781D01*
X021328Y000551D01*
X021788Y000551D01*
X021635Y000551D02*
X021635Y000781D01*
X021558Y000858D01*
X015788Y001088D02*
X015788Y001241D01*
X015712Y001318D01*
X015328Y001318D01*
X015328Y001471D02*
X015481Y001625D01*
X015328Y001778D01*
X015788Y001778D01*
X015788Y001932D02*
X015328Y001932D01*
X015328Y002162D01*
X015405Y002239D01*
X015558Y002239D01*
X015635Y002162D01*
X015635Y001932D01*
X015712Y002392D02*
X015788Y002469D01*
X015788Y002622D01*
X015712Y002699D01*
X015635Y002699D01*
X015558Y002622D01*
X015558Y002546D01*
X015558Y002622D02*
X015481Y002699D01*
X015405Y002699D01*
X015328Y002622D01*
X015328Y002469D01*
X015405Y002392D01*
X015328Y001471D02*
X015788Y001471D01*
X015788Y001088D02*
X015712Y001011D01*
X015328Y001011D01*
X015405Y000858D02*
X015558Y000858D01*
X015635Y000781D01*
X015635Y000551D01*
X015788Y000551D02*
X015328Y000551D01*
X015328Y000781D01*
X015405Y000858D01*
X009788Y001088D02*
X009788Y001241D01*
X009712Y001318D01*
X009328Y001318D01*
X009328Y001471D02*
X009481Y001625D01*
X009328Y001778D01*
X009788Y001778D01*
X009788Y001932D02*
X009328Y001932D01*
X009328Y002162D01*
X009405Y002239D01*
X009558Y002239D01*
X009635Y002162D01*
X009635Y001932D01*
X009788Y002392D02*
X009481Y002699D01*
X009405Y002699D01*
X009328Y002622D01*
X009328Y002469D01*
X009405Y002392D01*
X009788Y002392D02*
X009788Y002699D01*
X009788Y001471D02*
X009328Y001471D01*
X009328Y001011D02*
X009712Y001011D01*
X009788Y001088D01*
X009558Y000858D02*
X009635Y000781D01*
X009635Y000551D01*
X009788Y000551D02*
X009328Y000551D01*
X009328Y000781D01*
X009405Y000858D01*
X009558Y000858D01*
X003788Y001088D02*
X003788Y001241D01*
X003712Y001318D01*
X003328Y001318D01*
X003328Y001471D02*
X003481Y001625D01*
X003328Y001778D01*
X003788Y001778D01*
X003788Y001932D02*
X003328Y001932D01*
X003328Y002162D01*
X003405Y002239D01*
X003558Y002239D01*
X003635Y002162D01*
X003635Y001932D01*
X003788Y002392D02*
X003788Y002699D01*
X003788Y002546D02*
X003328Y002546D01*
X003481Y002392D01*
X003328Y001471D02*
X003788Y001471D01*
X003788Y001088D02*
X003712Y001011D01*
X003328Y001011D01*
X003405Y000858D02*
X003558Y000858D01*
X003635Y000781D01*
X003635Y000551D01*
X003788Y000551D02*
X003328Y000551D01*
X003328Y000781D01*
X003405Y000858D01*
X003368Y006603D02*
X003675Y006603D01*
X003521Y006603D02*
X003521Y007063D01*
X003368Y006909D01*
X003215Y006986D02*
X003138Y007063D01*
X002984Y007063D01*
X002908Y006986D01*
X002908Y006909D01*
X002984Y006833D01*
X003138Y006833D01*
X003215Y006756D01*
X003215Y006679D01*
X003138Y006603D01*
X002984Y006603D01*
X002908Y006679D01*
X008908Y006679D02*
X008984Y006603D01*
X009138Y006603D01*
X009215Y006679D01*
X009215Y006756D01*
X009138Y006833D01*
X008984Y006833D01*
X008908Y006909D01*
X008908Y006986D01*
X008984Y007063D01*
X009138Y007063D01*
X009215Y006986D01*
X009368Y006986D02*
X009445Y007063D01*
X009598Y007063D01*
X009675Y006986D01*
X009675Y006909D01*
X009368Y006603D01*
X009675Y006603D01*
X014908Y006679D02*
X014984Y006603D01*
X015138Y006603D01*
X015215Y006679D01*
X015215Y006756D01*
X015138Y006833D01*
X014984Y006833D01*
X014908Y006909D01*
X014908Y006986D01*
X014984Y007063D01*
X015138Y007063D01*
X015215Y006986D01*
X015368Y006986D02*
X015445Y007063D01*
X015598Y007063D01*
X015675Y006986D01*
X015675Y006909D01*
X015598Y006833D01*
X015675Y006756D01*
X015675Y006679D01*
X015598Y006603D01*
X015445Y006603D01*
X015368Y006679D01*
X015521Y006833D02*
X015598Y006833D01*
X020908Y006909D02*
X020984Y006833D01*
X021138Y006833D01*
X021215Y006756D01*
X021215Y006679D01*
X021138Y006603D01*
X020984Y006603D01*
X020908Y006679D01*
X020908Y006909D02*
X020908Y006986D01*
X020984Y007063D01*
X021138Y007063D01*
X021215Y006986D01*
X021368Y006833D02*
X021675Y006833D01*
X021598Y007063D02*
X021368Y006833D01*
X021598Y006603D02*
X021598Y007063D01*
X026908Y006986D02*
X026908Y006909D01*
X026984Y006833D01*
X027138Y006833D01*
X027215Y006756D01*
X027215Y006679D01*
X027138Y006603D01*
X026984Y006603D01*
X026908Y006679D01*
X026908Y006986D02*
X026984Y007063D01*
X027138Y007063D01*
X027215Y006986D01*
X027368Y007063D02*
X027368Y006833D01*
X027521Y006909D01*
X027598Y006909D01*
X027675Y006833D01*
X027675Y006679D01*
X027598Y006603D01*
X027445Y006603D01*
X027368Y006679D01*
X027368Y007063D02*
X027675Y007063D01*
X027808Y017333D02*
X027928Y017453D01*
X027868Y017453D01*
X027868Y017513D01*
X027928Y017513D01*
X027928Y017453D01*
X028054Y017513D02*
X028114Y017453D01*
X028234Y017453D01*
X028294Y017513D01*
X028294Y017633D01*
X028234Y017693D01*
X028174Y017693D01*
X028054Y017633D01*
X028054Y017813D01*
X028294Y017813D01*
X028422Y017693D02*
X028482Y017693D01*
X028542Y017633D01*
X028602Y017693D01*
X028662Y017633D01*
X028662Y017453D01*
X028542Y017453D02*
X028542Y017633D01*
X028422Y017693D02*
X028422Y017453D01*
X028790Y017453D02*
X028790Y017693D01*
X028850Y017693D01*
X028911Y017633D01*
X028971Y017693D01*
X029031Y017633D01*
X029031Y017453D01*
X028911Y017453D02*
X028911Y017633D01*
X027680Y017753D02*
X027440Y017513D01*
X027440Y017453D01*
X027312Y017453D02*
X027072Y017453D01*
X027192Y017453D02*
X027192Y017813D01*
X027072Y017693D01*
X026944Y017693D02*
X026944Y017453D01*
X026944Y017633D02*
X026703Y017633D01*
X026703Y017693D02*
X026703Y017453D01*
X026703Y017693D02*
X026823Y017813D01*
X026944Y017693D01*
X027440Y017813D02*
X027680Y017813D01*
X027680Y017753D01*
X023031Y017633D02*
X023031Y017453D01*
X022911Y017453D02*
X022911Y017633D01*
X022971Y017693D01*
X023031Y017633D01*
X022911Y017633D02*
X022850Y017693D01*
X022790Y017693D01*
X022790Y017453D01*
X022662Y017453D02*
X022662Y017633D01*
X022602Y017693D01*
X022542Y017633D01*
X022542Y017453D01*
X022422Y017453D02*
X022422Y017693D01*
X022482Y017693D01*
X022542Y017633D01*
X022294Y017633D02*
X022234Y017693D01*
X022174Y017693D01*
X022054Y017633D01*
X022054Y017813D01*
X022294Y017813D01*
X022294Y017633D02*
X022294Y017513D01*
X022234Y017453D01*
X022114Y017453D01*
X022054Y017513D01*
X021928Y017513D02*
X021868Y017513D01*
X021868Y017453D01*
X021928Y017453D01*
X021928Y017513D01*
X021928Y017453D02*
X021808Y017333D01*
X021440Y017453D02*
X021440Y017513D01*
X021680Y017753D01*
X021680Y017813D01*
X021440Y017813D01*
X021192Y017813D02*
X021192Y017453D01*
X021072Y017453D02*
X021312Y017453D01*
X021072Y017693D02*
X021192Y017813D01*
X020944Y017693D02*
X020944Y017453D01*
X020944Y017633D02*
X020703Y017633D01*
X020703Y017693D02*
X020703Y017453D01*
X020703Y017693D02*
X020823Y017813D01*
X020944Y017693D01*
X017031Y017633D02*
X017031Y017453D01*
X016911Y017453D02*
X016911Y017633D01*
X016971Y017693D01*
X017031Y017633D01*
X016911Y017633D02*
X016850Y017693D01*
X016790Y017693D01*
X016790Y017453D01*
X016662Y017453D02*
X016662Y017633D01*
X016602Y017693D01*
X016542Y017633D01*
X016542Y017453D01*
X016422Y017453D02*
X016422Y017693D01*
X016482Y017693D01*
X016542Y017633D01*
X016294Y017633D02*
X016234Y017693D01*
X016174Y017693D01*
X016054Y017633D01*
X016054Y017813D01*
X016294Y017813D01*
X016294Y017633D02*
X016294Y017513D01*
X016234Y017453D01*
X016114Y017453D01*
X016054Y017513D01*
X015928Y017513D02*
X015868Y017513D01*
X015868Y017453D01*
X015928Y017453D01*
X015928Y017513D01*
X015928Y017453D02*
X015808Y017333D01*
X015440Y017453D02*
X015440Y017513D01*
X015680Y017753D01*
X015680Y017813D01*
X015440Y017813D01*
X015192Y017813D02*
X015192Y017453D01*
X015072Y017453D02*
X015312Y017453D01*
X015072Y017693D02*
X015192Y017813D01*
X014944Y017693D02*
X014944Y017453D01*
X014944Y017633D02*
X014703Y017633D01*
X014703Y017693D02*
X014703Y017453D01*
X014703Y017693D02*
X014823Y017813D01*
X014944Y017693D01*
X011031Y017633D02*
X011031Y017453D01*
X010911Y017453D02*
X010911Y017633D01*
X010971Y017693D01*
X011031Y017633D01*
X010911Y017633D02*
X010850Y017693D01*
X010790Y017693D01*
X010790Y017453D01*
X010662Y017453D02*
X010662Y017633D01*
X010602Y017693D01*
X010542Y017633D01*
X010542Y017453D01*
X010422Y017453D02*
X010422Y017693D01*
X010482Y017693D01*
X010542Y017633D01*
X010294Y017633D02*
X010294Y017513D01*
X010234Y017453D01*
X010114Y017453D01*
X010054Y017513D01*
X010054Y017633D02*
X010174Y017693D01*
X010234Y017693D01*
X010294Y017633D01*
X010294Y017813D02*
X010054Y017813D01*
X010054Y017633D01*
X009928Y017513D02*
X009868Y017513D01*
X009868Y017453D01*
X009928Y017453D01*
X009928Y017513D01*
X009928Y017453D02*
X009808Y017333D01*
X009440Y017453D02*
X009440Y017513D01*
X009680Y017753D01*
X009680Y017813D01*
X009440Y017813D01*
X009192Y017813D02*
X009192Y017453D01*
X009072Y017453D02*
X009312Y017453D01*
X009072Y017693D02*
X009192Y017813D01*
X008944Y017693D02*
X008944Y017453D01*
X008944Y017633D02*
X008703Y017633D01*
X008703Y017693D02*
X008703Y017453D01*
X008703Y017693D02*
X008823Y017813D01*
X008944Y017693D01*
X005033Y017636D02*
X005033Y017456D01*
X004913Y017456D02*
X004913Y017636D01*
X004973Y017696D01*
X005033Y017636D01*
X004913Y017636D02*
X004853Y017696D01*
X004793Y017696D01*
X004793Y017456D01*
X004665Y017456D02*
X004665Y017636D01*
X004605Y017696D01*
X004545Y017636D01*
X004545Y017456D01*
X004425Y017456D02*
X004425Y017696D01*
X004485Y017696D01*
X004545Y017636D01*
X004297Y017636D02*
X004237Y017696D01*
X004176Y017696D01*
X004056Y017636D01*
X004056Y017816D01*
X004297Y017816D01*
X004297Y017636D02*
X004297Y017516D01*
X004237Y017456D01*
X004116Y017456D01*
X004056Y017516D01*
X003931Y017516D02*
X003871Y017516D01*
X003871Y017456D01*
X003931Y017456D01*
X003931Y017516D01*
X003931Y017456D02*
X003811Y017336D01*
X003443Y017456D02*
X003443Y017516D01*
X003683Y017756D01*
X003683Y017816D01*
X003443Y017816D01*
X003194Y017816D02*
X003194Y017456D01*
X003074Y017456D02*
X003314Y017456D01*
X003074Y017696D02*
X003194Y017816D01*
X002946Y017696D02*
X002946Y017456D01*
X002946Y017636D02*
X002706Y017636D01*
X002706Y017696D02*
X002706Y017456D01*
X002706Y017696D02*
X002826Y017816D01*
X002946Y017696D01*
X003280Y026353D02*
X003434Y026353D01*
X003510Y026429D01*
X003510Y026583D01*
X003357Y026583D01*
X003510Y026736D02*
X003434Y026813D01*
X003280Y026813D01*
X003203Y026736D01*
X003203Y026429D01*
X003280Y026353D01*
X003664Y026353D02*
X003664Y026813D01*
X003971Y026353D01*
X003971Y026813D01*
X004124Y026813D02*
X004354Y026813D01*
X004431Y026736D01*
X004431Y026429D01*
X004354Y026353D01*
X004124Y026353D01*
X004124Y026813D01*
X004953Y026813D02*
X004953Y026506D01*
X005107Y026353D01*
X005260Y026506D01*
X005260Y026813D01*
X005414Y026813D02*
X005567Y026813D01*
X005490Y026813D02*
X005490Y026353D01*
X005414Y026353D02*
X005567Y026353D01*
X005721Y026353D02*
X005721Y026813D01*
X006028Y026353D01*
X006028Y026813D01*
X006160Y029453D02*
X006007Y029606D01*
X006084Y029606D02*
X005853Y029606D01*
X005853Y029453D02*
X005853Y029913D01*
X006084Y029913D01*
X006160Y029836D01*
X006160Y029683D01*
X006084Y029606D01*
X006314Y029683D02*
X006467Y029683D01*
X006314Y029913D02*
X006314Y029453D01*
X006621Y029453D01*
X006774Y029453D02*
X006774Y029913D01*
X006621Y029913D02*
X006314Y029913D01*
X006774Y029453D02*
X007081Y029453D01*
X007234Y029453D02*
X007234Y029759D01*
X007388Y029913D01*
X007541Y029759D01*
X007541Y029453D01*
X007541Y029683D02*
X007234Y029683D01*
X007695Y029836D02*
X007848Y029683D01*
X007848Y029453D01*
X007848Y029683D02*
X008002Y029836D01*
X008002Y029913D01*
X007695Y029913D02*
X007695Y029836D01*
X008853Y029913D02*
X008853Y029453D01*
X008853Y029683D02*
X009007Y029683D01*
X008853Y029913D02*
X009160Y029913D01*
X009314Y029836D02*
X009314Y029759D01*
X009390Y029683D01*
X009544Y029683D01*
X009621Y029606D01*
X009621Y029529D01*
X009544Y029453D01*
X009390Y029453D01*
X009314Y029529D01*
X009314Y029836D02*
X009390Y029913D01*
X009544Y029913D01*
X009621Y029836D01*
X009774Y029759D02*
X009928Y029913D01*
X009928Y029453D01*
X010081Y029453D02*
X009774Y029453D01*
X011353Y029453D02*
X011353Y029913D01*
X011660Y029913D01*
X011814Y029836D02*
X011814Y029759D01*
X011890Y029683D01*
X012044Y029683D01*
X012121Y029606D01*
X012121Y029529D01*
X012044Y029453D01*
X011890Y029453D01*
X011814Y029529D01*
X011814Y029836D02*
X011890Y029913D01*
X012044Y029913D01*
X012121Y029836D01*
X012274Y029836D02*
X012351Y029913D01*
X012504Y029913D01*
X012581Y029836D01*
X012581Y029759D01*
X012274Y029453D01*
X012581Y029453D01*
X011507Y029683D02*
X011353Y029683D01*
X013853Y029683D02*
X014007Y029683D01*
X013853Y029913D02*
X014160Y029913D01*
X014314Y029836D02*
X014314Y029759D01*
X014390Y029683D01*
X014544Y029683D01*
X014621Y029606D01*
X014621Y029529D01*
X014544Y029453D01*
X014390Y029453D01*
X014314Y029529D01*
X014314Y029836D02*
X014390Y029913D01*
X014544Y029913D01*
X014621Y029836D01*
X014774Y029836D02*
X014851Y029913D01*
X015004Y029913D01*
X015081Y029836D01*
X015081Y029759D01*
X015004Y029683D01*
X015081Y029606D01*
X015081Y029529D01*
X015004Y029453D01*
X014851Y029453D01*
X014774Y029529D01*
X014928Y029683D02*
X015004Y029683D01*
X013853Y029453D02*
X013853Y029913D01*
X005134Y029836D02*
X005134Y029683D01*
X005057Y029606D01*
X004827Y029606D01*
X004980Y029606D02*
X005134Y029453D01*
X004827Y029453D02*
X004827Y029913D01*
X005057Y029913D01*
X005134Y029836D01*
X004673Y029913D02*
X004673Y029606D01*
X004520Y029453D01*
X004366Y029606D01*
X004366Y029913D01*
X004213Y029836D02*
X004136Y029913D01*
X003983Y029913D01*
X003906Y029836D01*
X003906Y029529D01*
X003983Y029453D01*
X004136Y029453D01*
X004213Y029529D01*
X003753Y029453D02*
X003599Y029606D01*
X003676Y029606D02*
X003446Y029606D01*
X003446Y029453D02*
X003446Y029913D01*
X003676Y029913D01*
X003753Y029836D01*
X003753Y029683D01*
X003676Y029606D01*
X003292Y029683D02*
X003292Y029836D01*
X003215Y029913D01*
X002985Y029913D01*
X002985Y029453D01*
X002985Y029606D02*
X003215Y029606D01*
X003292Y029683D01*
X003139Y029606D02*
X003292Y029453D01*
X002832Y029453D02*
X002678Y029453D01*
X002755Y029453D02*
X002755Y029913D01*
X002678Y029913D02*
X002832Y029913D01*
X002681Y026813D02*
X002374Y026813D01*
X002221Y026813D02*
X002221Y026429D01*
X002144Y026353D01*
X001990Y026353D01*
X001914Y026429D01*
X001914Y026813D01*
X001760Y026736D02*
X001684Y026813D01*
X001530Y026813D01*
X001453Y026736D01*
X001453Y026429D01*
X001530Y026353D01*
X001684Y026353D01*
X001760Y026429D01*
X001760Y026736D01*
X002528Y026813D02*
X002528Y026353D01*
X028178Y025616D02*
X028178Y025156D01*
X028408Y025156D01*
X028485Y025232D01*
X028485Y025309D01*
X028408Y025386D01*
X028178Y025386D01*
X028178Y025616D02*
X028408Y025616D01*
X028485Y025539D01*
X028485Y025463D01*
X028408Y025386D01*
X028639Y025309D02*
X028869Y025309D01*
X028945Y025386D01*
X028945Y025539D01*
X028869Y025616D01*
X028639Y025616D01*
X028639Y025156D01*
X028792Y025309D02*
X028945Y025156D01*
X029099Y025156D02*
X029252Y025156D01*
X029176Y025156D02*
X029176Y025616D01*
X029252Y025616D02*
X029099Y025616D01*
X029406Y025539D02*
X029406Y025232D01*
X029482Y025156D01*
X029636Y025156D01*
X029713Y025232D01*
X029713Y025386D01*
X029559Y025386D01*
X029406Y025539D02*
X029482Y025616D01*
X029636Y025616D01*
X029713Y025539D01*
X029866Y025616D02*
X029866Y025156D01*
X029866Y025386D02*
X030173Y025386D01*
X030173Y025616D02*
X030173Y025156D01*
X030480Y025156D02*
X030480Y025616D01*
X030633Y025616D02*
X030326Y025616D01*
X030787Y025616D02*
X030787Y025156D01*
X031094Y025156D02*
X030787Y025616D01*
X031094Y025616D02*
X031094Y025156D01*
X031247Y025156D02*
X031554Y025156D01*
X031708Y025232D02*
X031784Y025156D01*
X031938Y025156D01*
X032014Y025232D01*
X032014Y025309D01*
X031938Y025386D01*
X031784Y025386D01*
X031708Y025463D01*
X031708Y025539D01*
X031784Y025616D01*
X031938Y025616D01*
X032014Y025539D01*
X032168Y025539D02*
X032168Y025463D01*
X032245Y025386D01*
X032398Y025386D01*
X032475Y025309D01*
X032475Y025232D01*
X032398Y025156D01*
X032245Y025156D01*
X032168Y025232D01*
X032168Y025539D02*
X032245Y025616D01*
X032398Y025616D01*
X032475Y025539D01*
X031554Y025616D02*
X031247Y025616D01*
X031247Y025156D01*
X031247Y025386D02*
X031401Y025386D01*
D14*
X028033Y017048D02*
X027613Y017048D01*
X027613Y016733D01*
X027823Y016838D01*
X027928Y016838D01*
X028033Y016733D01*
X028033Y016523D01*
X027928Y016418D01*
X027718Y016418D01*
X027613Y016523D01*
X027389Y016523D02*
X027389Y016943D01*
X027284Y017048D01*
X027073Y017048D01*
X026968Y016943D01*
X026968Y016523D01*
X027073Y016418D01*
X027284Y016418D01*
X027389Y016523D01*
X027389Y016418D02*
X027179Y016628D01*
X022033Y016733D02*
X021613Y016733D01*
X021928Y017048D01*
X021928Y016418D01*
X021389Y016418D02*
X021179Y016628D01*
X021389Y016523D02*
X021284Y016418D01*
X021073Y016418D01*
X020968Y016523D01*
X020968Y016943D01*
X021073Y017048D01*
X021284Y017048D01*
X021389Y016943D01*
X021389Y016523D01*
X016033Y016523D02*
X015928Y016418D01*
X015718Y016418D01*
X015613Y016523D01*
X015389Y016523D02*
X015284Y016418D01*
X015073Y016418D01*
X014968Y016523D01*
X014968Y016943D01*
X015073Y017048D01*
X015284Y017048D01*
X015389Y016943D01*
X015389Y016523D01*
X015389Y016418D02*
X015179Y016628D01*
X015613Y016943D02*
X015718Y017048D01*
X015928Y017048D01*
X016033Y016943D01*
X016033Y016838D01*
X015928Y016733D01*
X016033Y016628D01*
X016033Y016523D01*
X015928Y016733D02*
X015823Y016733D01*
X010033Y016838D02*
X010033Y016943D01*
X009928Y017048D01*
X009718Y017048D01*
X009613Y016943D01*
X009389Y016943D02*
X009389Y016523D01*
X009284Y016418D01*
X009073Y016418D01*
X008968Y016523D01*
X008968Y016943D01*
X009073Y017048D01*
X009284Y017048D01*
X009389Y016943D01*
X009179Y016628D02*
X009389Y016418D01*
X009613Y016418D02*
X010033Y016838D01*
X010033Y016418D02*
X009613Y016418D01*
X004036Y016421D02*
X003616Y016421D01*
X003826Y016421D02*
X003826Y017052D01*
X003616Y016841D01*
X003391Y016946D02*
X003391Y016526D01*
X003286Y016421D01*
X003076Y016421D01*
X002971Y016526D01*
X002971Y016946D01*
X003076Y017052D01*
X003286Y017052D01*
X003391Y016946D01*
X003181Y016631D02*
X003391Y016421D01*
D15*
X002636Y017336D02*
X002636Y014086D01*
X006236Y014086D01*
X006236Y017336D01*
X002636Y017336D01*
X008633Y017333D02*
X008633Y014083D01*
X012233Y014083D01*
X012233Y017333D01*
X008633Y017333D01*
X014633Y017333D02*
X014633Y014083D01*
X018233Y014083D01*
X018233Y017333D01*
X014633Y017333D01*
X020633Y017333D02*
X020633Y014083D01*
X024233Y014083D01*
X024233Y017333D01*
X020633Y017333D01*
X026633Y017333D02*
X026633Y014083D01*
X030233Y014083D01*
X030233Y017333D01*
X026633Y017333D01*
D16*
X027433Y012608D03*
X028433Y012608D03*
X029433Y012608D03*
X023433Y012608D03*
X022433Y012608D03*
X021433Y012608D03*
X017433Y012608D03*
X016433Y012608D03*
X015433Y012608D03*
X011433Y012608D03*
X010433Y012608D03*
X009433Y012608D03*
X005436Y012611D03*
X004436Y012611D03*
X003436Y012611D03*
D17*
X003436Y013286D03*
X004436Y013286D03*
X005436Y013286D03*
X009433Y013283D03*
X010433Y013283D03*
X011433Y013283D03*
X015433Y013283D03*
X016433Y013283D03*
X017433Y013283D03*
X021433Y013283D03*
X022433Y013283D03*
X023433Y013283D03*
X027433Y013283D03*
X028433Y013283D03*
X029433Y013283D03*
D18*
X031733Y012221D02*
X031733Y012071D01*
X031808Y011996D01*
X031808Y011836D02*
X031959Y011836D01*
X032034Y011761D01*
X032034Y011536D01*
X032184Y011536D02*
X031733Y011536D01*
X031733Y011761D01*
X031808Y011836D01*
X031733Y012221D02*
X031808Y012296D01*
X031883Y012296D01*
X032184Y011996D01*
X032184Y012296D01*
X032109Y011300D02*
X031733Y011300D01*
X031733Y011225D02*
X031733Y011375D01*
X032109Y011300D02*
X032184Y011225D01*
X032184Y011150D01*
X032109Y011075D01*
X031958Y010097D02*
X031958Y009797D01*
X032408Y009797D01*
X032408Y009637D02*
X031958Y009637D01*
X032183Y009797D02*
X032183Y009947D01*
X032408Y009637D02*
X031958Y009337D01*
X032408Y009337D01*
X032333Y009177D02*
X032033Y009177D01*
X031958Y009102D01*
X031958Y008951D01*
X032033Y008876D01*
X032333Y008876D01*
X032408Y008951D01*
X032408Y009102D01*
X032333Y009177D01*
X032333Y008716D02*
X032408Y008641D01*
X032408Y008491D01*
X032333Y008416D01*
X032033Y008416D01*
X031958Y008491D01*
X031958Y008641D01*
X032033Y008716D01*
X029933Y007333D02*
X029933Y004833D01*
X027933Y004833D01*
X027933Y007333D01*
X029933Y007333D01*
X026058Y008958D02*
X025878Y009138D01*
X025833Y009138D01*
X025788Y009093D01*
X025788Y009003D01*
X025833Y008958D01*
X026058Y008958D02*
X026058Y009138D01*
X026058Y009252D02*
X025788Y009252D01*
X025923Y009297D02*
X026058Y009432D01*
X025968Y009252D02*
X025788Y009432D01*
X025158Y009037D02*
X025158Y008947D01*
X025113Y008902D01*
X025023Y008902D02*
X024978Y008992D01*
X024978Y009037D01*
X025023Y009082D01*
X025113Y009082D01*
X025158Y009037D01*
X025023Y008902D02*
X024888Y008902D01*
X024888Y009082D01*
X024933Y008788D02*
X025023Y008788D01*
X025068Y008743D01*
X025068Y008608D01*
X025068Y008698D02*
X025158Y008788D01*
X025158Y008608D02*
X024888Y008608D01*
X024888Y008743D01*
X024933Y008788D01*
X023933Y007333D02*
X023933Y004833D01*
X021933Y004833D01*
X021933Y007333D01*
X023933Y007333D01*
X020058Y008958D02*
X019878Y009138D01*
X019833Y009138D01*
X019788Y009093D01*
X019788Y009003D01*
X019833Y008958D01*
X020058Y008958D02*
X020058Y009138D01*
X020058Y009252D02*
X019788Y009252D01*
X019923Y009297D02*
X020058Y009432D01*
X019968Y009252D02*
X019788Y009432D01*
X019158Y009037D02*
X018888Y009037D01*
X019023Y008902D01*
X019023Y009082D01*
X019023Y008788D02*
X019068Y008743D01*
X019068Y008608D01*
X019068Y008698D02*
X019158Y008788D01*
X019023Y008788D02*
X018933Y008788D01*
X018888Y008743D01*
X018888Y008608D01*
X019158Y008608D01*
X017933Y007333D02*
X017933Y004833D01*
X015933Y004833D01*
X015933Y007333D01*
X017933Y007333D01*
X014058Y008958D02*
X013878Y009138D01*
X013833Y009138D01*
X013788Y009093D01*
X013788Y009003D01*
X013833Y008958D01*
X014058Y008958D02*
X014058Y009138D01*
X014058Y009252D02*
X013788Y009252D01*
X013923Y009297D02*
X014058Y009432D01*
X013968Y009252D02*
X013788Y009432D01*
X013158Y009037D02*
X013158Y008947D01*
X013113Y008902D01*
X013158Y008788D02*
X013068Y008698D01*
X013068Y008743D02*
X013068Y008608D01*
X013158Y008608D02*
X012888Y008608D01*
X012888Y008743D01*
X012933Y008788D01*
X013023Y008788D01*
X013068Y008743D01*
X012933Y008902D02*
X012888Y008947D01*
X012888Y009037D01*
X012933Y009082D01*
X012978Y009082D01*
X013023Y009037D01*
X013068Y009082D01*
X013113Y009082D01*
X013158Y009037D01*
X013023Y009037D02*
X013023Y008992D01*
X011933Y007333D02*
X011933Y004833D01*
X009933Y004833D01*
X009933Y007333D01*
X011933Y007333D01*
X008058Y008958D02*
X007878Y009138D01*
X007833Y009138D01*
X007788Y009093D01*
X007788Y009003D01*
X007833Y008958D01*
X008058Y008958D02*
X008058Y009138D01*
X008058Y009252D02*
X007788Y009252D01*
X007923Y009297D02*
X008058Y009432D01*
X007968Y009252D02*
X007788Y009432D01*
X007158Y009082D02*
X007158Y008902D01*
X006978Y009082D01*
X006933Y009082D01*
X006888Y009037D01*
X006888Y008947D01*
X006933Y008902D01*
X006933Y008788D02*
X007023Y008788D01*
X007068Y008743D01*
X007068Y008608D01*
X007068Y008698D02*
X007158Y008788D01*
X007158Y008608D02*
X006888Y008608D01*
X006888Y008743D01*
X006933Y008788D01*
X005933Y007333D02*
X005933Y004833D01*
X003933Y004833D01*
X003933Y007333D01*
X005933Y007333D01*
X002061Y008958D02*
X001881Y009139D01*
X001836Y009139D01*
X001791Y009093D01*
X001791Y009003D01*
X001836Y008958D01*
X002061Y008958D02*
X002061Y009139D01*
X002061Y009253D02*
X001791Y009253D01*
X001926Y009298D02*
X002061Y009433D01*
X001971Y009253D02*
X001791Y009433D01*
X001161Y009083D02*
X001161Y008903D01*
X001161Y008993D02*
X000891Y008993D01*
X000981Y008903D01*
X001026Y008789D02*
X001071Y008743D01*
X001071Y008608D01*
X001161Y008608D02*
X000891Y008608D01*
X000891Y008743D01*
X000936Y008789D01*
X001026Y008789D01*
X001071Y008698D02*
X001161Y008789D01*
X007265Y003823D02*
X007265Y003523D01*
X007265Y003673D02*
X006815Y003673D01*
X006965Y003523D01*
X006890Y003362D02*
X006815Y003287D01*
X006815Y003062D01*
X007265Y003062D01*
X007265Y003287D01*
X007190Y003362D01*
X006890Y003362D01*
X005933Y003083D02*
X005933Y000583D01*
X003933Y000583D01*
X003933Y003083D01*
X005933Y003083D01*
X009933Y003083D02*
X009933Y000583D01*
X011933Y000583D01*
X011933Y003083D01*
X009933Y003083D01*
X012808Y003058D02*
X012808Y003283D01*
X012883Y003358D01*
X013183Y003358D01*
X013258Y003283D01*
X013258Y003058D01*
X012808Y003058D01*
X012883Y003518D02*
X012808Y003593D01*
X012808Y003743D01*
X012883Y003818D01*
X012958Y003818D01*
X013258Y003518D01*
X013258Y003818D01*
X015933Y003083D02*
X017933Y003083D01*
X017933Y000583D01*
X015933Y000583D01*
X015933Y003083D01*
X018808Y003058D02*
X018808Y003283D01*
X018883Y003358D01*
X019183Y003358D01*
X019258Y003283D01*
X019258Y003058D01*
X018808Y003058D01*
X018883Y003518D02*
X018808Y003593D01*
X018808Y003743D01*
X018883Y003818D01*
X018958Y003818D01*
X019033Y003743D01*
X019108Y003818D01*
X019183Y003818D01*
X019258Y003743D01*
X019258Y003593D01*
X019183Y003518D01*
X019033Y003668D02*
X019033Y003743D01*
X021933Y003083D02*
X023933Y003083D01*
X023933Y000583D01*
X021933Y000583D01*
X021933Y003083D01*
X024808Y003058D02*
X024808Y003283D01*
X024883Y003358D01*
X025183Y003358D01*
X025258Y003283D01*
X025258Y003058D01*
X024808Y003058D01*
X025033Y003518D02*
X025033Y003818D01*
X024808Y003743D02*
X025033Y003518D01*
X025258Y003743D02*
X024808Y003743D01*
X027933Y003083D02*
X029933Y003083D01*
X029933Y000583D01*
X027933Y000583D01*
X027933Y003083D01*
X030808Y003058D02*
X030808Y003283D01*
X030883Y003358D01*
X031183Y003358D01*
X031258Y003283D01*
X031258Y003058D01*
X030808Y003058D01*
X030808Y003518D02*
X031033Y003518D01*
X030958Y003668D01*
X030958Y003743D01*
X031033Y003818D01*
X031183Y003818D01*
X031258Y003743D01*
X031258Y003593D01*
X031183Y003518D01*
X030808Y003518D02*
X030808Y003818D01*
X036431Y005408D02*
X036506Y005333D01*
X036581Y005333D01*
X036656Y005408D01*
X036656Y005784D01*
X036581Y005784D02*
X036731Y005784D01*
X036891Y005784D02*
X036891Y005333D01*
X036891Y005483D02*
X037116Y005483D01*
X037191Y005559D01*
X037191Y005709D01*
X037116Y005784D01*
X036891Y005784D01*
X037351Y005784D02*
X037351Y005559D01*
X037501Y005634D01*
X037576Y005634D01*
X037651Y005559D01*
X037651Y005408D01*
X037576Y005333D01*
X037426Y005333D01*
X037351Y005408D01*
X037351Y005784D02*
X037651Y005784D01*
X037113Y011078D02*
X037188Y011153D01*
X037188Y011228D01*
X037113Y011303D01*
X036738Y011303D01*
X036738Y011228D02*
X036738Y011378D01*
X036738Y011538D02*
X036738Y011763D01*
X036813Y011838D01*
X036963Y011838D01*
X037038Y011763D01*
X037038Y011538D01*
X037188Y011538D02*
X036738Y011538D01*
X036963Y011998D02*
X036963Y012299D01*
X037188Y012223D02*
X036738Y012223D01*
X036963Y011998D01*
X032113Y019078D02*
X032188Y019153D01*
X032188Y019228D01*
X032113Y019303D01*
X031738Y019303D01*
X031738Y019228D02*
X031738Y019378D01*
X031738Y019538D02*
X031738Y019763D01*
X031813Y019838D01*
X031963Y019838D01*
X032038Y019763D01*
X032038Y019538D01*
X032188Y019538D02*
X031738Y019538D01*
X031813Y019998D02*
X031738Y020073D01*
X031738Y020223D01*
X031813Y020299D01*
X031888Y020299D01*
X031963Y020223D01*
X032038Y020299D01*
X032113Y020299D01*
X032188Y020223D01*
X032188Y020073D01*
X032113Y019998D01*
X031963Y020148D02*
X031963Y020223D01*
X036738Y020288D02*
X036738Y020513D01*
X036813Y020588D01*
X036963Y020588D01*
X037038Y020513D01*
X037038Y020288D01*
X037188Y020288D02*
X036738Y020288D01*
X036738Y020128D02*
X036738Y019978D01*
X036738Y020053D02*
X037113Y020053D01*
X037188Y019978D01*
X037188Y019903D01*
X037113Y019828D01*
X037188Y020748D02*
X037188Y021049D01*
X037188Y020898D02*
X036738Y020898D01*
X036888Y020748D01*
X036813Y021209D02*
X036738Y021284D01*
X036738Y021434D01*
X036813Y021509D01*
X037113Y021209D01*
X037188Y021284D01*
X037188Y021434D01*
X037113Y021509D01*
X036813Y021509D01*
X036813Y021209D02*
X037113Y021209D01*
X037113Y023078D02*
X037188Y023153D01*
X037188Y023228D01*
X037113Y023303D01*
X036738Y023303D01*
X036738Y023228D02*
X036738Y023378D01*
X036738Y023538D02*
X036738Y023763D01*
X036813Y023838D01*
X036963Y023838D01*
X037038Y023763D01*
X037038Y023538D01*
X037188Y023538D02*
X036738Y023538D01*
X036963Y023998D02*
X036813Y024148D01*
X036738Y024299D01*
X036963Y024223D02*
X036963Y023998D01*
X037113Y023998D01*
X037188Y024073D01*
X037188Y024223D01*
X037113Y024299D01*
X037038Y024299D01*
X036963Y024223D01*
X018808Y024233D02*
X018808Y024383D01*
X018733Y024458D01*
X018358Y024458D01*
X018508Y024618D02*
X018358Y024768D01*
X018808Y024768D01*
X018808Y024618D02*
X018808Y024918D01*
X018808Y024233D02*
X018733Y024158D01*
X018358Y024158D01*
X015433Y027133D02*
X013433Y027133D01*
X013433Y029333D01*
X013933Y029333D01*
X013933Y028833D01*
X014933Y028833D01*
X014933Y029333D01*
X015433Y029333D01*
X015433Y027133D01*
X012933Y027133D02*
X010933Y027133D01*
X010933Y029333D01*
X011433Y029333D01*
X011433Y028833D01*
X012433Y028833D01*
X012433Y029333D01*
X012933Y029333D01*
X012933Y027133D01*
X012433Y029333D02*
X011433Y029333D01*
X010433Y029333D02*
X009933Y029333D01*
X009933Y028833D01*
X008933Y028833D01*
X008933Y029333D01*
X009933Y029333D01*
X010433Y029333D02*
X010433Y027133D01*
X008433Y027133D01*
X008433Y029333D01*
X008933Y029333D01*
X007933Y029333D02*
X007433Y029333D01*
X007433Y028833D01*
X006433Y028833D01*
X006433Y029333D01*
X007433Y029333D01*
X007933Y029333D02*
X007933Y027133D01*
X005933Y027133D01*
X005933Y029333D01*
X006433Y029333D01*
X005433Y029333D02*
X004933Y029333D01*
X004933Y028833D01*
X002933Y028833D01*
X002933Y029333D01*
X004933Y029333D01*
X005433Y029333D02*
X005433Y027133D01*
X002433Y027133D01*
X002433Y029333D01*
X002933Y029333D01*
X006258Y023858D02*
X006258Y023783D01*
X006409Y023633D01*
X006409Y023408D01*
X006409Y023633D02*
X006559Y023783D01*
X006559Y023858D01*
X006719Y023708D02*
X006869Y023858D01*
X006869Y023408D01*
X006719Y023408D02*
X007019Y023408D01*
X002808Y022468D02*
X002808Y022168D01*
X002508Y022468D01*
X002433Y022468D01*
X002358Y022393D01*
X002358Y022243D01*
X002433Y022168D01*
X002358Y022008D02*
X002733Y022008D01*
X002808Y021933D01*
X002808Y021783D01*
X002733Y021708D01*
X002358Y021708D01*
X000738Y023083D02*
X000740Y023144D01*
X000746Y023205D01*
X000756Y023265D01*
X000770Y023325D01*
X000787Y023384D01*
X000808Y023441D01*
X000833Y023497D01*
X000862Y023551D01*
X000894Y023603D01*
X000929Y023653D01*
X000968Y023701D01*
X001009Y023746D01*
X001054Y023788D01*
X001101Y023827D01*
X001150Y023863D01*
X001202Y023896D01*
X001255Y023926D01*
X001311Y023952D01*
X001368Y023974D01*
X001426Y023992D01*
X001486Y024007D01*
X001546Y024018D01*
X001607Y024025D01*
X001668Y024028D01*
X001729Y024027D01*
X001790Y024022D01*
X001850Y024013D01*
X001910Y024000D01*
X001969Y023984D01*
X002027Y023963D01*
X002083Y023939D01*
X002138Y023911D01*
X002190Y023880D01*
X002241Y023846D01*
X002289Y023808D01*
X002335Y023767D01*
X002378Y023724D01*
X002418Y023677D01*
X002455Y023629D01*
X002488Y023577D01*
X002519Y023524D01*
X002545Y023469D01*
X002569Y023413D01*
X002588Y023355D01*
X002604Y023295D01*
X002616Y023235D01*
X002624Y023175D01*
X002628Y023114D01*
X002628Y023052D01*
X002624Y022991D01*
X002616Y022931D01*
X002604Y022871D01*
X002588Y022811D01*
X002569Y022753D01*
X002545Y022697D01*
X002519Y022642D01*
X002488Y022589D01*
X002455Y022537D01*
X002418Y022489D01*
X002378Y022442D01*
X002335Y022399D01*
X002289Y022358D01*
X002241Y022320D01*
X002190Y022286D01*
X002138Y022255D01*
X002083Y022227D01*
X002027Y022203D01*
X001969Y022182D01*
X001910Y022166D01*
X001850Y022153D01*
X001790Y022144D01*
X001729Y022139D01*
X001668Y022138D01*
X001607Y022141D01*
X001546Y022148D01*
X001486Y022159D01*
X001426Y022174D01*
X001368Y022192D01*
X001311Y022214D01*
X001255Y022240D01*
X001202Y022270D01*
X001150Y022303D01*
X001101Y022339D01*
X001054Y022378D01*
X001009Y022420D01*
X000968Y022465D01*
X000929Y022513D01*
X000894Y022563D01*
X000862Y022615D01*
X000833Y022669D01*
X000808Y022725D01*
X000787Y022782D01*
X000770Y022841D01*
X000756Y022901D01*
X000746Y022961D01*
X000740Y023022D01*
X000738Y023083D01*
X013933Y029333D02*
X014933Y029333D01*
D19*
X013933Y003283D03*
X007940Y003287D03*
X019933Y003283D03*
X025933Y003283D03*
X031933Y003283D03*
D20*
X031933Y002658D03*
X031933Y005008D03*
X025933Y005008D03*
X025933Y002658D03*
X019933Y002658D03*
X019933Y005008D03*
X013933Y005008D03*
X013933Y002658D03*
X007940Y002662D03*
X007940Y005012D03*
D21*
X008406Y008592D02*
X007461Y008592D01*
X007461Y011073D01*
X008406Y011073D01*
X008406Y008592D01*
X013461Y008592D02*
X013461Y011073D01*
X014406Y011073D01*
X014406Y008592D01*
X013461Y008592D01*
X019461Y008592D02*
X019461Y011073D01*
X020406Y011073D01*
X020406Y008592D01*
X019461Y008592D01*
X025461Y008592D02*
X025461Y011073D01*
X026406Y011073D01*
X026406Y008592D01*
X025461Y008592D01*
X029233Y008383D02*
X029233Y010083D01*
X030033Y010433D02*
X030838Y010433D01*
X031633Y010083D02*
X031633Y008383D01*
X030826Y008033D02*
X030033Y008033D01*
X029733Y009233D02*
X029735Y009285D01*
X029741Y009337D01*
X029751Y009389D01*
X029764Y009439D01*
X029781Y009489D01*
X029802Y009537D01*
X029827Y009583D01*
X029855Y009627D01*
X029886Y009669D01*
X029920Y009709D01*
X029957Y009746D01*
X029997Y009780D01*
X030039Y009811D01*
X030083Y009839D01*
X030129Y009864D01*
X030177Y009885D01*
X030227Y009902D01*
X030277Y009915D01*
X030329Y009925D01*
X030381Y009931D01*
X030433Y009933D01*
X030485Y009931D01*
X030537Y009925D01*
X030589Y009915D01*
X030639Y009902D01*
X030689Y009885D01*
X030737Y009864D01*
X030783Y009839D01*
X030827Y009811D01*
X030869Y009780D01*
X030909Y009746D01*
X030946Y009709D01*
X030980Y009669D01*
X031011Y009627D01*
X031039Y009583D01*
X031064Y009537D01*
X031085Y009489D01*
X031102Y009439D01*
X031115Y009389D01*
X031125Y009337D01*
X031131Y009285D01*
X031133Y009233D01*
X031131Y009181D01*
X031125Y009129D01*
X031115Y009077D01*
X031102Y009027D01*
X031085Y008977D01*
X031064Y008929D01*
X031039Y008883D01*
X031011Y008839D01*
X030980Y008797D01*
X030946Y008757D01*
X030909Y008720D01*
X030869Y008686D01*
X030827Y008655D01*
X030783Y008627D01*
X030737Y008602D01*
X030689Y008581D01*
X030639Y008564D01*
X030589Y008551D01*
X030537Y008541D01*
X030485Y008535D01*
X030433Y008533D01*
X030381Y008535D01*
X030329Y008541D01*
X030277Y008551D01*
X030227Y008564D01*
X030177Y008581D01*
X030129Y008602D01*
X030083Y008627D01*
X030039Y008655D01*
X029997Y008686D01*
X029957Y008720D01*
X029920Y008757D01*
X029886Y008797D01*
X029855Y008839D01*
X029827Y008883D01*
X029802Y008929D01*
X029781Y008977D01*
X029764Y009027D01*
X029751Y009077D01*
X029741Y009129D01*
X029735Y009181D01*
X029733Y009233D01*
X027933Y024133D02*
X027833Y024133D01*
X027933Y024133D02*
X027933Y026533D01*
X027833Y026533D01*
X027033Y026533D02*
X026833Y026533D01*
X026033Y026533D02*
X025833Y026533D01*
X025033Y026533D02*
X024833Y026533D01*
X024033Y026533D02*
X023833Y026533D01*
X023033Y026533D02*
X022833Y026533D01*
X022033Y026533D02*
X021833Y026533D01*
X021033Y026533D02*
X020833Y026533D01*
X020033Y026533D02*
X019833Y026533D01*
X019033Y026533D02*
X018933Y026533D01*
X018933Y025733D01*
X018972Y025731D01*
X019011Y025725D01*
X019049Y025716D01*
X019086Y025703D01*
X019122Y025686D01*
X019155Y025666D01*
X019187Y025642D01*
X019216Y025616D01*
X019242Y025587D01*
X019266Y025555D01*
X019286Y025522D01*
X019303Y025486D01*
X019316Y025449D01*
X019325Y025411D01*
X019331Y025372D01*
X019333Y025333D01*
X019331Y025294D01*
X019325Y025255D01*
X019316Y025217D01*
X019303Y025180D01*
X019286Y025144D01*
X019266Y025111D01*
X019242Y025079D01*
X019216Y025050D01*
X019187Y025024D01*
X019155Y025000D01*
X019122Y024980D01*
X019086Y024963D01*
X019049Y024950D01*
X019011Y024941D01*
X018972Y024935D01*
X018933Y024933D01*
X018933Y024133D01*
X019033Y024133D01*
X019833Y024133D02*
X020033Y024133D01*
X020833Y024133D02*
X021033Y024133D01*
X021833Y024133D02*
X022033Y024133D01*
X022833Y024133D02*
X023033Y024133D01*
X023833Y024133D02*
X024033Y024133D01*
X024833Y024133D02*
X025033Y024133D01*
X025833Y024133D02*
X026033Y024133D01*
X026833Y024133D02*
X027033Y024133D01*
X017933Y026583D02*
X017933Y027083D01*
X002408Y011074D02*
X001463Y011074D01*
X001463Y008593D01*
X002408Y008593D01*
X002408Y011074D01*
D22*
X028563Y025829D02*
X032303Y025829D01*
X032303Y027679D01*
X028563Y027679D01*
X028563Y025829D01*
D23*
X029075Y026321D03*
D24*
X018191Y026178D02*
X018091Y026178D01*
X018141Y026178D02*
X018141Y026328D01*
X018091Y026278D01*
X018044Y026303D02*
X018019Y026328D01*
X017969Y026328D01*
X017944Y026303D01*
X017944Y026203D01*
X017969Y026178D01*
X018019Y026178D01*
X018044Y026203D01*
D25*
X005948Y023033D03*
X005948Y022633D03*
D26*
X003092Y023289D02*
X003092Y023412D01*
X003030Y023474D01*
X003092Y023595D02*
X002845Y023842D01*
X002783Y023842D01*
X002722Y023781D01*
X002722Y023657D01*
X002783Y023595D01*
X002783Y023474D02*
X002722Y023412D01*
X002722Y023289D01*
X002783Y023227D01*
X003030Y023227D01*
X003092Y023289D01*
X003092Y023595D02*
X003092Y023842D01*
D27*
X004933Y007083D03*
X004933Y002833D03*
X010933Y002833D03*
X010933Y007083D03*
X016933Y007083D03*
X016933Y002833D03*
X022933Y002833D03*
X022933Y007083D03*
X028933Y007083D03*
X028933Y002833D03*
M02*
