%
M48
M72
T01C0.0236
T02C0.0240
T03C0.0276
T04C0.0320
T05C0.0354
T06C0.0400
T07C0.0440
T08C0.0460
T09C0.1300
%
T01
X9433Y20833
X14933Y22833
X2433Y25333
X34433Y10333
X36433Y12333
T02
X31433Y26833
X30433Y26833
X29433Y26833
T03
X18433Y26833
X17433Y26833
T04
X19433Y26833
X20433Y26833
X21433Y26833
X22433Y26833
X23433Y26833
X24433Y26833
X25433Y26833
X26433Y26833
X27433Y26833
X27433Y23833
X26433Y23833
X25433Y23833
X24433Y23833
X23433Y23833
X22433Y23833
X21433Y23833
X20433Y23833
X19433Y23833
X6433Y24333
X5433Y24333
X4433Y24333
X3433Y24333
X5433Y23333
X5433Y22333
X5433Y21333
X4433Y21333
X3433Y21333
X6433Y21333
T05
X7933Y11833
X7933Y7833
X13933Y7833
X13933Y11833
X19933Y11833
X19933Y7833
X25933Y7833
X25933Y11833
X1936Y11833
X1936Y7833
T06
X2933Y28333
X3933Y28333
X4933Y28333
X6433Y28333
X7433Y28333
X8933Y28333
X9933Y28333
X11433Y28333
X12433Y28333
X13933Y28333
X14933Y28333
X20933Y29333
X21933Y29333
X22933Y29333
X23933Y29333
X24933Y29333
X25933Y29333
X26933Y29333
X27933Y29333
X28933Y29333
X29933Y29333
X30933Y29333
X31933Y29333
X32933Y29333
X33933Y29333
X34933Y29333
X35933Y29333
X37933Y26583
X37933Y25583
X37933Y24583
X37933Y23583
X37933Y22333
X37933Y21333
X37933Y20333
X37933Y16583
X37933Y15583
X37933Y14583
X37933Y13583
X37933Y12583
X37933Y11583
X32929Y11580
X32929Y12580
X32929Y13580
X32929Y14580
X31323Y10513
X29543Y10513
X29543Y7953
X31323Y7953
X36936Y4588
X37936Y4588
X32933Y19583
X32933Y20583
X32933Y21583
T07
X29433Y11833
X28433Y11833
X27433Y11833
X23433Y11833
X22433Y11833
X21433Y11833
X17433Y11833
X16433Y11833
X15433Y11833
X11433Y11833
X10433Y11833
X9433Y11833
X5436Y11836
X4436Y11836
X3436Y11836
X7940Y5837
X7940Y1837
X13933Y1833
X13933Y5833
X19933Y5833
X19933Y1833
X25933Y1833
X25933Y5833
X31933Y5833
X31933Y1833
T08
X29433Y1833
X28433Y1833
X23433Y1833
X22433Y1833
X17433Y1833
X16433Y1833
X11433Y1833
X10433Y1833
X5433Y1833
X4433Y1833
X4433Y6083
X5433Y6083
X10433Y6083
X11433Y6083
X16433Y6083
X17433Y6083
X22433Y6083
X23433Y6083
X28433Y6083
X29433Y6083
T09
X1533Y1233
X4436Y18736
X10433Y18733
X16433Y18733
X22433Y18733
X28433Y18733
X37833Y29733
X37933Y1233
X1233Y29733
M30
